<?xml version="1.0" encoding="utf-8"?>
<!-- Generator: Adobe Illustrator 27.0.0, SVG Export Plug-In . SVG Version: 6.00 Build 0)  -->
<svg version="1.1" id="Layer_1" xmlns="http://www.w3.org/2000/svg" xmlns:xlink="http://www.w3.org/1999/xlink" x="0px" y="0px"
	 viewBox="0 0 541.5 50.6" style="enable-background:new 0 0 541.5 50.6;" xml:space="preserve">
<style type="text/css">
	.st0{display:none;}
	.st1{display:inline;fill:#00497C;}
	.st2{font-family:'Lato-Bold';}
	.st3{font-size:63px;}
	.st4{display:inline;}
	.st5{fill:#00497C;}
	.st6{font-family:'Lato-Regular';}
	.st7{font-size:26.3694px;}
</style>
<g class="st0">
	<text transform="matrix(1 0 0 1 -4.8824 45.9287)" class="st1 st2 st3">PFPR</text>
	<rect x="167.8" y="0.4" class="st1" width="1" height="45.5"/>
	<text transform="matrix(1 0 0 1 185.7412 19.4209)" class="st4"><tspan x="0" y="0" class="st5 st6 st7">Programme de formation sur le </tspan><tspan x="0" y="26.4" class="st5 st6 st7">parrainage privé des réfugiés</tspan></text>
</g>
<g>
	<g>
		<path class="st5" d="M8.5,29.9v16H0V0.4h14.8c3,0,5.7,0.4,7.9,1.1c2.2,0.7,4.1,1.7,5.5,3c1.4,1.3,2.5,2.8,3.2,4.6
			c0.7,1.8,1,3.7,1,5.9c0,2.2-0.4,4.2-1.1,6.1c-0.7,1.8-1.8,3.4-3.3,4.7c-1.5,1.3-3.3,2.4-5.5,3.1c-2.2,0.7-4.8,1.1-7.7,1.1H8.5z
			 M8.5,23.3h6.4c1.6,0,2.9-0.2,4.1-0.6c1.2-0.4,2.1-0.9,2.9-1.7s1.3-1.6,1.7-2.6s0.6-2.2,0.6-3.5c0-1.2-0.2-2.3-0.6-3.3
			c-0.4-1-0.9-1.8-1.7-2.5s-1.7-1.2-2.9-1.6c-1.2-0.4-2.5-0.6-4.1-0.6H8.5V23.3z"/>
		<path class="st5" d="M67.8,0.4v6.7H47.6v13.5h17v6.8h-17v18.6h-8.5V0.4H67.8z"/>
		<path class="st5" d="M83.2,29.9v16h-8.5V0.4h14.8c3,0,5.7,0.4,7.9,1.1c2.2,0.7,4.1,1.7,5.5,3c1.4,1.3,2.5,2.8,3.2,4.6
			c0.7,1.8,1,3.7,1,5.9c0,2.2-0.4,4.2-1.1,6.1c-0.7,1.8-1.8,3.4-3.3,4.7c-1.5,1.3-3.3,2.4-5.5,3.1c-2.2,0.7-4.8,1.1-7.7,1.1H83.2z
			 M83.2,23.3h6.4c1.6,0,2.9-0.2,4.1-0.6c1.2-0.4,2.1-0.9,2.9-1.7s1.3-1.6,1.7-2.6s0.6-2.2,0.6-3.5c0-1.2-0.2-2.3-0.6-3.3
			c-0.4-1-0.9-1.8-1.7-2.5s-1.7-1.2-2.9-1.6c-1.2-0.4-2.5-0.6-4.1-0.6h-6.4V23.3z"/>
		<path class="st5" d="M122.6,28.1v17.8h-8.5V0.4H128c3.1,0,5.8,0.3,8,1c2.2,0.6,4,1.5,5.4,2.7c1.4,1.2,2.5,2.5,3.1,4.1s1,3.4,1,5.3
			c0,1.5-0.2,3-0.7,4.3c-0.5,1.4-1.1,2.6-2,3.7c-0.9,1.1-1.9,2.1-3.2,2.9c-1.2,0.8-2.7,1.5-4.3,2c1.1,0.6,2,1.5,2.8,2.6l11.4,16.8
			h-7.6c-0.7,0-1.4-0.1-1.9-0.4c-0.5-0.3-1-0.7-1.3-1.3l-9.6-14.6c-0.4-0.5-0.8-0.9-1.2-1.2c-0.4-0.2-1.1-0.3-1.9-0.3H122.6z
			 M122.6,22.1h5.3c1.6,0,3-0.2,4.2-0.6c1.2-0.4,2.2-0.9,2.9-1.7c0.8-0.7,1.3-1.5,1.7-2.5c0.4-1,0.6-2,0.6-3.2
			c0-2.3-0.8-4.1-2.3-5.3c-1.5-1.2-3.8-1.9-7-1.9h-5.4V22.1z"/>
	</g>
	<rect x="167.8" y="0.4" class="st5" width="1" height="45.5"/>
	<g>
		<path class="st5" d="M190.8,12.4v7.1h-2.5V0.5h5.6c1.2,0,2.2,0.1,3.1,0.4c0.9,0.3,1.6,0.7,2.2,1.2s1,1.1,1.3,1.8
			c0.3,0.7,0.4,1.5,0.4,2.4c0,0.9-0.2,1.7-0.5,2.4c-0.3,0.7-0.8,1.4-1.4,1.9c-0.6,0.5-1.3,0.9-2.2,1.2c-0.9,0.3-1.9,0.4-3,0.4H190.8
			z M190.8,10.3h3c0.7,0,1.4-0.1,1.9-0.3c0.6-0.2,1-0.5,1.4-0.8s0.7-0.8,0.9-1.2s0.3-1,0.3-1.6c0-1.2-0.4-2.1-1.1-2.8
			c-0.7-0.7-1.9-1-3.4-1h-3V10.3z"/>
		<path class="st5" d="M203.8,19.4V6.1h1.3c0.3,0,0.4,0,0.5,0.1c0.1,0.1,0.2,0.3,0.2,0.5l0.2,2.1c0.5-0.9,1-1.7,1.7-2.2
			c0.7-0.5,1.5-0.8,2.4-0.8c0.4,0,0.7,0,1,0.1s0.6,0.2,0.8,0.3l-0.3,1.8c-0.1,0.2-0.2,0.3-0.4,0.3c-0.1,0-0.3,0-0.6-0.1
			c-0.3-0.1-0.6-0.1-1.1-0.1c-0.8,0-1.5,0.2-2.1,0.7s-1,1.2-1.4,2.1v8.5H203.8z"/>
		<path class="st5" d="M219.8,5.9c1,0,1.9,0.2,2.6,0.5c0.8,0.3,1.5,0.8,2,1.4c0.5,0.6,1,1.3,1.3,2.2c0.3,0.8,0.4,1.8,0.4,2.8
			c0,1.1-0.1,2-0.4,2.8c-0.3,0.8-0.7,1.6-1.3,2.2c-0.5,0.6-1.2,1.1-2,1.4c-0.8,0.3-1.7,0.5-2.6,0.5s-1.9-0.2-2.6-0.5
			c-0.8-0.3-1.5-0.8-2-1.4s-1-1.3-1.3-2.2s-0.4-1.8-0.4-2.8c0-1,0.1-2,0.4-2.8s0.7-1.6,1.3-2.2s1.2-1.1,2-1.4
			C218,6,218.8,5.9,219.8,5.9z M219.8,17.8c1.3,0,2.3-0.4,3-1.3s1-2.1,1-3.7c0-1.6-0.3-2.8-1-3.7c-0.7-0.9-1.6-1.3-3-1.3
			c-0.7,0-1.2,0.1-1.7,0.3s-0.9,0.6-1.2,1c-0.3,0.4-0.6,1-0.7,1.6s-0.2,1.3-0.2,2.1s0.1,1.5,0.2,2.1c0.2,0.6,0.4,1.1,0.7,1.6
			c0.3,0.4,0.7,0.8,1.2,1S219.1,17.8,219.8,17.8z"/>
		<path class="st5" d="M233.6,5.8c0.6,0,1.1,0.1,1.6,0.2c0.5,0.1,1,0.3,1.4,0.6h3.6v0.9c0,0.3-0.2,0.5-0.6,0.6l-1.5,0.2
			c0.3,0.6,0.4,1.2,0.4,1.9c0,0.7-0.1,1.2-0.4,1.8c-0.3,0.5-0.6,1-1,1.4c-0.4,0.4-1,0.7-1.6,0.9c-0.6,0.2-1.3,0.3-2,0.3
			c-0.6,0-1.2-0.1-1.8-0.2c-0.3,0.2-0.5,0.4-0.6,0.6c-0.1,0.2-0.2,0.4-0.2,0.6c0,0.3,0.1,0.6,0.4,0.7c0.3,0.2,0.6,0.3,1,0.4
			s0.9,0.1,1.4,0.1s1.1,0,1.6,0c0.6,0,1.1,0,1.6,0.1c0.5,0.1,1,0.3,1.4,0.5c0.4,0.2,0.8,0.5,1,0.9c0.3,0.4,0.4,0.9,0.4,1.5
			c0,0.6-0.1,1.1-0.4,1.7c-0.3,0.5-0.7,1-1.2,1.4s-1.2,0.8-2,1c-0.8,0.3-1.6,0.4-2.6,0.4s-1.8-0.1-2.6-0.3s-1.3-0.5-1.8-0.8
			c-0.5-0.3-0.8-0.7-1.1-1.1c-0.2-0.4-0.4-0.9-0.4-1.3c0-0.7,0.2-1.2,0.6-1.7c0.4-0.5,1-0.8,1.7-1.1c-0.4-0.2-0.7-0.4-0.9-0.7
			c-0.2-0.3-0.3-0.7-0.3-1.2c0-0.2,0-0.4,0.1-0.6c0.1-0.2,0.2-0.4,0.3-0.6c0.1-0.2,0.3-0.4,0.5-0.6c0.2-0.2,0.5-0.3,0.7-0.5
			c-0.7-0.4-1.2-0.9-1.5-1.5c-0.4-0.6-0.6-1.3-0.6-2.1c0-0.7,0.1-1.2,0.4-1.8c0.3-0.5,0.6-1,1-1.4c0.4-0.4,1-0.7,1.6-0.9
			C232.1,5.9,232.8,5.8,233.6,5.8z M237.7,20.1c0-0.3-0.1-0.6-0.3-0.8s-0.4-0.4-0.8-0.5c-0.3-0.1-0.7-0.2-1.1-0.2s-0.8-0.1-1.3-0.1
			s-0.9,0-1.4,0s-0.9-0.1-1.4-0.2c-0.5,0.2-0.9,0.5-1.2,0.9c-0.3,0.3-0.5,0.8-0.5,1.2c0,0.3,0.1,0.6,0.2,0.8
			c0.2,0.3,0.4,0.5,0.7,0.7c0.3,0.2,0.7,0.3,1.2,0.4c0.5,0.1,1,0.2,1.7,0.2c0.6,0,1.2-0.1,1.7-0.2c0.5-0.1,0.9-0.3,1.3-0.5
			c0.3-0.2,0.6-0.5,0.8-0.8C237.6,20.8,237.7,20.5,237.7,20.1z M233.6,12.9c0.5,0,0.9-0.1,1.3-0.2c0.4-0.1,0.7-0.3,0.9-0.6
			s0.4-0.5,0.6-0.9s0.2-0.7,0.2-1.1c0-0.8-0.2-1.5-0.7-2c-0.5-0.5-1.2-0.7-2.2-0.7c-0.9,0-1.7,0.2-2.2,0.7c-0.5,0.5-0.7,1.1-0.7,2
			c0,0.4,0.1,0.8,0.2,1.1c0.1,0.3,0.3,0.6,0.6,0.9s0.5,0.4,0.9,0.6S233.1,12.9,233.6,12.9z"/>
		<path class="st5" d="M242.5,19.4V6.1h1.3c0.3,0,0.4,0,0.5,0.1s0.2,0.3,0.2,0.5l0.2,2.1c0.5-0.9,1-1.7,1.7-2.2
			c0.7-0.5,1.5-0.8,2.4-0.8c0.4,0,0.7,0,1,0.1s0.6,0.2,0.8,0.3l-0.3,1.8c-0.1,0.2-0.2,0.3-0.4,0.3c-0.1,0-0.3,0-0.6-0.1
			s-0.6-0.1-1.1-0.1c-0.8,0-1.5,0.2-2.1,0.7c-0.5,0.5-1,1.2-1.4,2.1v8.5H242.5z"/>
		<path class="st5" d="M262.5,19.4h-1c-0.2,0-0.4,0-0.6-0.1s-0.2-0.2-0.3-0.4l-0.3-1.2c-0.4,0.3-0.7,0.6-1,0.9s-0.7,0.5-1.1,0.6
			s-0.8,0.3-1.2,0.4c-0.4,0.1-0.9,0.1-1.4,0.1c-0.5,0-1-0.1-1.5-0.2s-0.8-0.4-1.2-0.7s-0.6-0.7-0.8-1.1c-0.2-0.4-0.3-1-0.3-1.6
			c0-0.5,0.1-1,0.4-1.5c0.3-0.5,0.8-0.9,1.4-1.3c0.6-0.4,1.5-0.7,2.5-0.9c1-0.2,2.3-0.4,3.8-0.4v-1c0-1-0.2-1.8-0.7-2.4
			c-0.4-0.5-1.1-0.8-2-0.8c-0.6,0-1.1,0.1-1.4,0.2c-0.4,0.1-0.7,0.3-1,0.5c-0.3,0.2-0.5,0.3-0.7,0.5c-0.2,0.1-0.4,0.2-0.6,0.2
			c-0.2,0-0.3,0-0.4-0.1c-0.1-0.1-0.2-0.2-0.3-0.3L252.6,8c0.7-0.7,1.5-1.2,2.4-1.6s1.8-0.5,2.8-0.5c0.7,0,1.4,0.1,2,0.4
			s1.1,0.6,1.5,1s0.7,1,0.9,1.6c0.2,0.6,0.3,1.3,0.3,2.1V19.4z M256.4,18c0.4,0,0.8,0,1.1-0.1c0.3-0.1,0.7-0.2,1-0.4
			c0.3-0.2,0.6-0.3,0.9-0.6s0.5-0.5,0.8-0.8v-2.8c-1.1,0-2,0.1-2.8,0.2c-0.8,0.1-1.4,0.3-1.8,0.5c-0.5,0.2-0.8,0.5-1,0.8
			c-0.2,0.3-0.3,0.6-0.3,1c0,0.4,0.1,0.7,0.2,0.9c0.1,0.3,0.3,0.5,0.5,0.6s0.4,0.3,0.7,0.4S256.1,18,256.4,18z"/>
		<path class="st5" d="M266,19.4V6.1h1.4c0.3,0,0.5,0.2,0.6,0.5l0.2,1.4c0.5-0.6,1-1.1,1.7-1.5c0.6-0.4,1.3-0.6,2.1-0.6
			c0.9,0,1.6,0.3,2.2,0.8c0.6,0.5,1,1.2,1.2,2c0.2-0.5,0.4-0.9,0.7-1.3c0.3-0.4,0.6-0.6,1-0.9s0.8-0.4,1.2-0.5
			c0.4-0.1,0.9-0.2,1.3-0.2c0.7,0,1.3,0.1,1.9,0.3c0.5,0.2,1,0.6,1.4,1c0.4,0.4,0.7,1,0.9,1.6s0.3,1.3,0.3,2.2v8.5h-2.3v-8.5
			c0-1-0.2-1.8-0.7-2.4s-1.1-0.8-2-0.8c-0.4,0-0.8,0.1-1.1,0.2c-0.3,0.1-0.7,0.3-0.9,0.6s-0.5,0.6-0.6,1c-0.2,0.4-0.2,0.9-0.2,1.4
			v8.5h-2.3v-8.5c0-1.1-0.2-1.9-0.6-2.4s-1.1-0.8-1.9-0.8c-0.6,0-1.1,0.2-1.6,0.5c-0.5,0.3-1,0.7-1.4,1.3v10H266z"/>
		<path class="st5" d="M287.7,19.4V6.1h1.4c0.3,0,0.5,0.2,0.6,0.5l0.2,1.4c0.5-0.6,1-1.1,1.7-1.5c0.6-0.4,1.3-0.6,2.1-0.6
			c0.9,0,1.6,0.3,2.2,0.8c0.6,0.5,1,1.2,1.2,2c0.2-0.5,0.4-0.9,0.7-1.3c0.3-0.4,0.6-0.6,1-0.9s0.8-0.4,1.2-0.5
			c0.4-0.1,0.9-0.2,1.3-0.2c0.7,0,1.3,0.1,1.9,0.3c0.5,0.2,1,0.6,1.4,1c0.4,0.4,0.7,1,0.9,1.6s0.3,1.3,0.3,2.2v8.5h-2.3v-8.5
			c0-1-0.2-1.8-0.7-2.4s-1.1-0.8-2-0.8c-0.4,0-0.8,0.1-1.1,0.2c-0.3,0.1-0.7,0.3-0.9,0.6s-0.5,0.6-0.6,1c-0.2,0.4-0.2,0.9-0.2,1.4
			v8.5h-2.3v-8.5c0-1.1-0.2-1.9-0.6-2.4s-1.1-0.8-1.9-0.8c-0.6,0-1.1,0.2-1.6,0.5c-0.5,0.3-1,0.7-1.4,1.3v10H287.7z"/>
		<path class="st5" d="M314.6,5.9c0.8,0,1.5,0.1,2.2,0.4c0.7,0.3,1.3,0.7,1.8,1.2c0.5,0.5,0.9,1.1,1.2,1.9c0.3,0.7,0.4,1.6,0.4,2.5
			c0,0.4,0,0.6-0.1,0.7s-0.2,0.2-0.4,0.2h-8.9c0,0.8,0.1,1.6,0.3,2.2c0.2,0.6,0.5,1.1,0.9,1.6s0.8,0.7,1.3,0.9
			c0.5,0.2,1.1,0.3,1.7,0.3c0.6,0,1.1-0.1,1.5-0.2c0.4-0.1,0.8-0.3,1.1-0.4s0.6-0.3,0.8-0.4c0.2-0.1,0.4-0.2,0.5-0.2
			c0.2,0,0.3,0.1,0.4,0.2l0.7,0.9c-0.3,0.4-0.6,0.7-1,0.9c-0.4,0.3-0.8,0.5-1.3,0.6c-0.5,0.2-0.9,0.3-1.4,0.4
			c-0.5,0.1-1,0.1-1.5,0.1c-0.9,0-1.8-0.2-2.6-0.5c-0.8-0.3-1.5-0.8-2-1.4s-1-1.3-1.3-2.2c-0.3-0.9-0.5-1.9-0.5-3.1
			c0-0.9,0.1-1.8,0.4-2.6c0.3-0.8,0.7-1.5,1.2-2.1c0.5-0.6,1.2-1.1,2-1.4S313.7,5.9,314.6,5.9z M314.7,7.6c-1.1,0-2,0.3-2.7,1
			s-1.1,1.6-1.2,2.7h7.3c0-0.5-0.1-1-0.2-1.5s-0.4-0.8-0.7-1.2s-0.6-0.6-1.1-0.8C315.7,7.7,315.2,7.6,314.7,7.6z"/>
		<path class="st5" d="M337.6,19.4c-0.3,0-0.5-0.2-0.6-0.5l-0.2-1.6c-0.6,0.7-1.2,1.3-2,1.7c-0.7,0.4-1.6,0.6-2.5,0.6
			c-0.8,0-1.5-0.1-2.1-0.4c-0.6-0.3-1.2-0.7-1.6-1.3s-0.8-1.3-1-2.1c-0.2-0.9-0.4-1.8-0.4-2.9c0-1,0.1-1.9,0.4-2.7s0.6-1.6,1.1-2.2
			c0.5-0.6,1.1-1.1,1.8-1.5s1.5-0.5,2.4-0.5c0.8,0,1.5,0.1,2.1,0.4s1.1,0.7,1.6,1.2V0h2.3v19.4H337.6z M333.1,17.7
			c0.8,0,1.4-0.2,2-0.5c0.6-0.4,1.1-0.8,1.6-1.5V9.2c-0.4-0.6-0.9-1-1.4-1.2s-1.1-0.3-1.7-0.3c-1.2,0-2.2,0.4-2.9,1.3
			c-0.7,0.9-1,2.2-1,3.8c0,0.9,0.1,1.6,0.2,2.2s0.4,1.1,0.7,1.5s0.6,0.7,1.1,0.9S332.5,17.7,333.1,17.7z"/>
		<path class="st5" d="M348.3,5.9c0.8,0,1.5,0.1,2.2,0.4c0.7,0.3,1.3,0.7,1.8,1.2c0.5,0.5,0.9,1.1,1.2,1.9c0.3,0.7,0.4,1.6,0.4,2.5
			c0,0.4,0,0.6-0.1,0.7s-0.2,0.2-0.4,0.2h-8.9c0,0.8,0.1,1.6,0.3,2.2c0.2,0.6,0.5,1.1,0.9,1.6s0.8,0.7,1.3,0.9
			c0.5,0.2,1.1,0.3,1.7,0.3c0.6,0,1.1-0.1,1.5-0.2c0.4-0.1,0.8-0.3,1.1-0.4s0.6-0.3,0.8-0.4c0.2-0.1,0.4-0.2,0.5-0.2
			c0.2,0,0.3,0.1,0.4,0.2l0.7,0.9c-0.3,0.4-0.6,0.7-1,0.9c-0.4,0.3-0.8,0.5-1.3,0.6c-0.5,0.2-0.9,0.3-1.4,0.4
			c-0.5,0.1-1,0.1-1.5,0.1c-0.9,0-1.8-0.2-2.6-0.5c-0.8-0.3-1.5-0.8-2-1.4s-1-1.3-1.3-2.2c-0.3-0.9-0.5-1.9-0.5-3.1
			c0-0.9,0.1-1.8,0.4-2.6c0.3-0.8,0.7-1.5,1.2-2.1c0.5-0.6,1.2-1.1,2-1.4S347.3,5.9,348.3,5.9z M348.3,7.6c-1.1,0-2,0.3-2.7,1
			s-1.1,1.6-1.2,2.7h7.3c0-0.5-0.1-1-0.2-1.5s-0.4-0.8-0.7-1.2s-0.6-0.6-1.1-0.8C349.3,7.7,348.9,7.6,348.3,7.6z"/>
		<path class="st5" d="M362.4,19.4V8.1l-1.5-0.2c-0.2,0-0.3-0.1-0.5-0.2c-0.1-0.1-0.2-0.2-0.2-0.4v-1h2.1V5c0-0.8,0.1-1.4,0.3-2
			c0.2-0.6,0.5-1.1,0.9-1.5s0.9-0.7,1.4-0.9s1.2-0.3,1.9-0.3c0.6,0,1.2,0.1,1.7,0.3l-0.1,1.2c0,0.2-0.1,0.3-0.2,0.3
			s-0.3,0.1-0.6,0.1h-0.4c-0.4,0-0.8,0.1-1.1,0.2c-0.3,0.1-0.6,0.3-0.9,0.5s-0.4,0.5-0.5,0.9c-0.1,0.4-0.2,0.9-0.2,1.4v1.2h3.9V8
			h-3.8v11.4H362.4z"/>
		<path class="st5" d="M376.2,5.9c1,0,1.9,0.2,2.6,0.5c0.8,0.3,1.5,0.8,2,1.4c0.5,0.6,1,1.3,1.3,2.2c0.3,0.8,0.4,1.8,0.4,2.8
			c0,1.1-0.1,2-0.4,2.8c-0.3,0.8-0.7,1.6-1.3,2.2c-0.5,0.6-1.2,1.1-2,1.4c-0.8,0.3-1.7,0.5-2.6,0.5s-1.9-0.2-2.6-0.5
			c-0.8-0.3-1.5-0.8-2-1.4s-1-1.3-1.3-2.2s-0.4-1.8-0.4-2.8c0-1,0.1-2,0.4-2.8s0.7-1.6,1.3-2.2s1.2-1.1,2-1.4
			C374.3,6,375.2,5.9,376.2,5.9z M376.2,17.8c1.3,0,2.3-0.4,3-1.3s1-2.1,1-3.7c0-1.6-0.3-2.8-1-3.7c-0.7-0.9-1.6-1.3-3-1.3
			c-0.7,0-1.2,0.1-1.7,0.3s-0.9,0.6-1.2,1c-0.3,0.4-0.6,1-0.7,1.6s-0.2,1.3-0.2,2.1s0.1,1.5,0.2,2.1c0.2,0.6,0.4,1.1,0.7,1.6
			c0.3,0.4,0.7,0.8,1.2,1S375.5,17.8,376.2,17.8z"/>
		<path class="st5" d="M385.4,19.4V6.1h1.3c0.3,0,0.4,0,0.5,0.1s0.2,0.3,0.2,0.5l0.2,2.1c0.5-0.9,1-1.7,1.7-2.2
			c0.7-0.5,1.5-0.8,2.4-0.8c0.4,0,0.7,0,1,0.1s0.6,0.2,0.8,0.3l-0.3,1.8c-0.1,0.2-0.2,0.3-0.4,0.3c-0.1,0-0.3,0-0.6-0.1
			s-0.6-0.1-1.1-0.1c-0.8,0-1.5,0.2-2.1,0.7c-0.5,0.5-1,1.2-1.4,2.1v8.5H385.4z"/>
		<path class="st5" d="M396.1,19.4V6.1h1.4c0.3,0,0.5,0.2,0.6,0.5l0.2,1.4c0.5-0.6,1-1.1,1.7-1.5c0.6-0.4,1.3-0.6,2.1-0.6
			c0.9,0,1.6,0.3,2.2,0.8c0.6,0.5,1,1.2,1.2,2c0.2-0.5,0.4-0.9,0.7-1.3c0.3-0.4,0.6-0.6,1-0.9s0.8-0.4,1.2-0.5
			c0.4-0.1,0.9-0.2,1.3-0.2c0.7,0,1.3,0.1,1.9,0.3c0.5,0.2,1,0.6,1.4,1c0.4,0.4,0.7,1,0.9,1.6s0.3,1.3,0.3,2.2v8.5h-2.3v-8.5
			c0-1-0.2-1.8-0.7-2.4s-1.1-0.8-2-0.8c-0.4,0-0.8,0.1-1.1,0.2c-0.3,0.1-0.7,0.3-0.9,0.6s-0.5,0.6-0.6,1c-0.2,0.4-0.2,0.9-0.2,1.4
			v8.5h-2.3v-8.5c0-1.1-0.2-1.9-0.6-2.4s-1.1-0.8-1.9-0.8c-0.6,0-1.1,0.2-1.6,0.5c-0.5,0.3-1,0.7-1.4,1.3v10H396.1z"/>
		<path class="st5" d="M427.5,19.4h-1c-0.2,0-0.4,0-0.6-0.1s-0.2-0.2-0.3-0.4l-0.3-1.2c-0.4,0.3-0.7,0.6-1,0.9s-0.7,0.5-1.1,0.6
			s-0.8,0.3-1.2,0.4c-0.4,0.1-0.9,0.1-1.4,0.1c-0.5,0-1-0.1-1.5-0.2s-0.8-0.4-1.2-0.7s-0.6-0.7-0.8-1.1c-0.2-0.4-0.3-1-0.3-1.6
			c0-0.5,0.1-1,0.4-1.5c0.3-0.5,0.8-0.9,1.4-1.3c0.6-0.4,1.5-0.7,2.5-0.9c1-0.2,2.3-0.4,3.8-0.4v-1c0-1-0.2-1.8-0.7-2.4
			c-0.4-0.5-1.1-0.8-2-0.8c-0.6,0-1.1,0.1-1.4,0.2c-0.4,0.1-0.7,0.3-1,0.5c-0.3,0.2-0.5,0.3-0.7,0.5c-0.2,0.1-0.4,0.2-0.6,0.2
			c-0.2,0-0.3,0-0.4-0.1c-0.1-0.1-0.2-0.2-0.3-0.3L417.6,8c0.7-0.7,1.5-1.2,2.4-1.6s1.8-0.5,2.8-0.5c0.7,0,1.4,0.1,2,0.4
			s1.1,0.6,1.5,1s0.7,1,0.9,1.6c0.2,0.6,0.3,1.3,0.3,2.1V19.4z M421.4,18c0.4,0,0.8,0,1.1-0.1c0.3-0.1,0.7-0.2,1-0.4
			c0.3-0.2,0.6-0.3,0.9-0.6s0.5-0.5,0.8-0.8v-2.8c-1.1,0-2,0.1-2.8,0.2c-0.8,0.1-1.4,0.3-1.8,0.5c-0.5,0.2-0.8,0.5-1,0.8
			c-0.2,0.3-0.3,0.6-0.3,1c0,0.4,0.1,0.7,0.2,0.9c0.1,0.3,0.3,0.5,0.5,0.6s0.4,0.3,0.7,0.4S421.1,18,421.4,18z"/>
		<path class="st5" d="M435.1,19.6c-1.1,0-1.9-0.3-2.4-0.9c-0.6-0.6-0.9-1.4-0.9-2.5V8h-1.6c-0.1,0-0.3,0-0.4-0.1
			c-0.1-0.1-0.1-0.2-0.1-0.4V6.6l2.2-0.3l0.5-4.1c0-0.1,0.1-0.2,0.2-0.3c0.1-0.1,0.2-0.1,0.4-0.1h1.2v4.6h3.8V8h-3.8v8
			c0,0.6,0.1,1,0.4,1.3s0.6,0.4,1.1,0.4c0.2,0,0.5,0,0.6-0.1c0.2-0.1,0.3-0.1,0.5-0.2s0.2-0.2,0.3-0.2c0.1-0.1,0.2-0.1,0.2-0.1
			c0.1,0,0.2,0.1,0.3,0.2l0.7,1.1c-0.4,0.4-0.9,0.7-1.5,0.9C436.3,19.5,435.7,19.6,435.1,19.6z"/>
		<path class="st5" d="M444.1,1.9c0,0.2,0,0.4-0.1,0.6c-0.1,0.2-0.2,0.4-0.4,0.5c-0.2,0.2-0.3,0.3-0.5,0.4c-0.2,0.1-0.4,0.1-0.6,0.1
			s-0.4,0-0.6-0.1c-0.2-0.1-0.4-0.2-0.5-0.4c-0.2-0.2-0.3-0.3-0.4-0.5s-0.1-0.4-0.1-0.6s0-0.4,0.1-0.7c0.1-0.2,0.2-0.4,0.4-0.5
			c0.2-0.2,0.3-0.3,0.5-0.4c0.2-0.1,0.4-0.1,0.6-0.1s0.4,0,0.6,0.1s0.4,0.2,0.5,0.4c0.2,0.2,0.3,0.3,0.4,0.5
			C444,1.4,444.1,1.6,444.1,1.9z M443.5,6.1v13.4h-2.3V6.1H443.5z"/>
		<path class="st5" d="M453.1,5.9c1,0,1.9,0.2,2.6,0.5c0.8,0.3,1.5,0.8,2,1.4c0.5,0.6,1,1.3,1.3,2.2c0.3,0.8,0.4,1.8,0.4,2.8
			c0,1.1-0.1,2-0.4,2.8c-0.3,0.8-0.7,1.6-1.3,2.2c-0.5,0.6-1.2,1.1-2,1.4c-0.8,0.3-1.7,0.5-2.6,0.5s-1.9-0.2-2.6-0.5
			c-0.8-0.3-1.5-0.8-2-1.4s-1-1.3-1.3-2.2s-0.4-1.8-0.4-2.8c0-1,0.1-2,0.4-2.8s0.7-1.6,1.3-2.2s1.2-1.1,2-1.4
			C451.2,6,452.1,5.9,453.1,5.9z M453.1,17.8c1.3,0,2.3-0.4,3-1.3s1-2.1,1-3.7c0-1.6-0.3-2.8-1-3.7c-0.7-0.9-1.6-1.3-3-1.3
			c-0.7,0-1.2,0.1-1.7,0.3s-0.9,0.6-1.2,1c-0.3,0.4-0.6,1-0.7,1.6s-0.2,1.3-0.2,2.1s0.1,1.5,0.2,2.1c0.2,0.6,0.4,1.1,0.7,1.6
			c0.3,0.4,0.7,0.8,1.2,1S452.4,17.8,453.1,17.8z"/>
		<path class="st5" d="M462.3,19.4V6.1h1.4c0.3,0,0.5,0.2,0.6,0.5l0.2,1.5c0.6-0.6,1.2-1.2,1.9-1.6c0.7-0.4,1.5-0.6,2.5-0.6
			c0.7,0,1.4,0.1,1.9,0.4c0.6,0.2,1,0.6,1.4,1c0.4,0.4,0.7,1,0.9,1.6c0.2,0.6,0.3,1.3,0.3,2.1v8.5h-2.3v-8.5c0-1-0.2-1.8-0.7-2.4
			c-0.5-0.6-1.2-0.8-2.1-0.8c-0.7,0-1.3,0.2-1.9,0.5c-0.6,0.3-1.2,0.8-1.7,1.4v9.8H462.3z"/>
		<path class="st5" d="M489.7,8.3c-0.1,0.2-0.3,0.3-0.5,0.3c-0.1,0-0.3,0-0.4-0.1s-0.4-0.2-0.6-0.3c-0.2-0.1-0.5-0.2-0.9-0.3
			c-0.3-0.1-0.7-0.2-1.2-0.2c-0.4,0-0.8,0.1-1.1,0.2c-0.3,0.1-0.6,0.2-0.8,0.4c-0.2,0.2-0.4,0.4-0.5,0.6c-0.1,0.2-0.2,0.5-0.2,0.8
			c0,0.3,0.1,0.6,0.3,0.9c0.2,0.2,0.5,0.4,0.8,0.6s0.7,0.3,1.1,0.4s0.8,0.3,1.3,0.4c0.4,0.1,0.9,0.3,1.3,0.5s0.8,0.4,1.1,0.7
			s0.6,0.6,0.8,1c0.2,0.4,0.3,0.8,0.3,1.4c0,0.6-0.1,1.2-0.3,1.7s-0.5,1-1,1.4s-1,0.7-1.6,0.9c-0.6,0.2-1.3,0.3-2.2,0.3
			c-0.9,0-1.8-0.2-2.5-0.5c-0.8-0.3-1.4-0.7-1.9-1.2l0.6-0.9c0.1-0.1,0.2-0.2,0.3-0.3c0.1-0.1,0.2-0.1,0.4-0.1s0.3,0.1,0.5,0.2
			s0.4,0.3,0.6,0.4s0.6,0.3,0.9,0.4c0.4,0.1,0.8,0.2,1.3,0.2c0.5,0,0.9-0.1,1.2-0.2s0.6-0.3,0.9-0.5s0.4-0.4,0.5-0.7
			c0.1-0.3,0.2-0.5,0.2-0.8c0-0.4-0.1-0.7-0.3-0.9c-0.2-0.2-0.5-0.4-0.8-0.6c-0.3-0.2-0.7-0.3-1.1-0.4c-0.4-0.1-0.8-0.3-1.3-0.4
			c-0.4-0.1-0.9-0.3-1.3-0.5c-0.4-0.2-0.8-0.4-1.1-0.7s-0.6-0.6-0.8-1c-0.2-0.4-0.3-0.9-0.3-1.5c0-0.5,0.1-1,0.3-1.5
			s0.5-0.9,0.9-1.2s0.9-0.6,1.5-0.9s1.3-0.3,2-0.3c0.9,0,1.7,0.1,2.4,0.4c0.7,0.3,1.3,0.7,1.8,1.1L489.7,8.3z"/>
		<path class="st5" d="M495.6,6.1v8.5c0,1,0.2,1.8,0.7,2.3c0.5,0.6,1.2,0.8,2.1,0.8c0.7,0,1.3-0.2,1.9-0.5s1.2-0.8,1.7-1.4V6.1h2.3
			v13.4h-1.4c-0.3,0-0.5-0.2-0.6-0.5l-0.2-1.4c-0.6,0.6-1.2,1.2-2,1.5c-0.7,0.4-1.5,0.6-2.5,0.6c-0.7,0-1.4-0.1-1.9-0.4
			c-0.6-0.2-1-0.6-1.4-1s-0.7-1-0.9-1.6c-0.2-0.6-0.3-1.3-0.3-2.1V6.1H495.6z"/>
		<path class="st5" d="M508.2,19.4V6.1h1.3c0.3,0,0.4,0,0.5,0.1s0.2,0.3,0.2,0.5l0.2,2.1c0.5-0.9,1-1.7,1.7-2.2
			c0.7-0.5,1.5-0.8,2.4-0.8c0.4,0,0.7,0,1,0.1s0.6,0.2,0.8,0.3L516,8.1c-0.1,0.2-0.2,0.3-0.4,0.3c-0.1,0-0.3,0-0.6-0.1
			s-0.6-0.1-1.1-0.1c-0.8,0-1.5,0.2-2.1,0.7c-0.5,0.5-1,1.2-1.4,2.1v8.5H508.2z"/>
		<path class="st5" d="M526.5,0v19.4h-2.3V0H526.5z"/>
		<path class="st5" d="M535.9,5.9c0.8,0,1.5,0.1,2.2,0.4c0.7,0.3,1.3,0.7,1.8,1.2c0.5,0.5,0.9,1.1,1.2,1.9c0.3,0.7,0.4,1.6,0.4,2.5
			c0,0.4,0,0.6-0.1,0.7s-0.2,0.2-0.4,0.2H532c0,0.8,0.1,1.6,0.3,2.2c0.2,0.6,0.5,1.1,0.9,1.6s0.8,0.7,1.3,0.9
			c0.5,0.2,1.1,0.3,1.7,0.3c0.6,0,1.1-0.1,1.5-0.2c0.4-0.1,0.8-0.3,1.1-0.4s0.6-0.3,0.8-0.4c0.2-0.1,0.4-0.2,0.5-0.2
			c0.2,0,0.3,0.1,0.4,0.2l0.7,0.9c-0.3,0.4-0.6,0.7-1,0.9c-0.4,0.3-0.8,0.5-1.3,0.6c-0.5,0.2-0.9,0.3-1.4,0.4
			c-0.5,0.1-1,0.1-1.5,0.1c-0.9,0-1.8-0.2-2.6-0.5c-0.8-0.3-1.5-0.8-2-1.4s-1-1.3-1.3-2.2c-0.3-0.9-0.5-1.9-0.5-3.1
			c0-0.9,0.1-1.8,0.4-2.6c0.3-0.8,0.7-1.5,1.2-2.1c0.5-0.6,1.2-1.1,2-1.4S535,5.9,535.9,5.9z M536,7.6c-1.1,0-2,0.3-2.7,1
			s-1.1,1.6-1.2,2.7h7.3c0-0.5-0.1-1-0.2-1.5s-0.4-0.8-0.7-1.2s-0.6-0.6-1.1-0.8C537,7.7,536.5,7.6,536,7.6z"/>
		<path class="st5" d="M187.7,50.3V32.4h1.4c0.3,0,0.5,0.2,0.6,0.5l0.2,1.6c0.6-0.7,1.2-1.3,2-1.7c0.7-0.4,1.6-0.6,2.5-0.6
			c0.8,0,1.5,0.1,2.1,0.4c0.6,0.3,1.2,0.7,1.6,1.3c0.4,0.6,0.8,1.3,1,2.1s0.4,1.8,0.4,2.9c0,1-0.1,1.9-0.4,2.7s-0.6,1.6-1.1,2.2
			c-0.5,0.6-1.1,1.1-1.8,1.5c-0.7,0.4-1.5,0.5-2.4,0.5c-0.8,0-1.5-0.1-2.1-0.4c-0.6-0.3-1.1-0.7-1.5-1.2v5.9H187.7z M193.6,34.1
			c-0.8,0-1.4,0.2-2,0.5c-0.6,0.4-1.1,0.8-1.6,1.5v6.5c0.4,0.6,0.9,1,1.4,1.2c0.5,0.2,1.1,0.4,1.7,0.4c1.2,0,2.2-0.4,2.9-1.3
			s1-2.2,1-3.8c0-0.9-0.1-1.6-0.2-2.2s-0.4-1.1-0.7-1.5s-0.6-0.7-1.1-0.9S194.1,34.1,193.6,34.1z"/>
		<path class="st5" d="M212,45.8h-1c-0.2,0-0.4,0-0.6-0.1s-0.2-0.2-0.3-0.4l-0.3-1.2c-0.4,0.3-0.7,0.6-1,0.9
			c-0.3,0.2-0.7,0.5-1.1,0.6c-0.4,0.2-0.8,0.3-1.2,0.4c-0.4,0.1-0.9,0.1-1.4,0.1c-0.5,0-1-0.1-1.5-0.2c-0.5-0.1-0.8-0.4-1.2-0.7
			s-0.6-0.7-0.8-1.1s-0.3-1-0.3-1.6c0-0.5,0.1-1,0.4-1.5s0.8-0.9,1.4-1.3c0.6-0.4,1.5-0.7,2.5-0.9c1-0.2,2.3-0.4,3.8-0.4v-1
			c0-1-0.2-1.8-0.7-2.4s-1.1-0.8-2-0.8c-0.6,0-1.1,0.1-1.4,0.2c-0.4,0.1-0.7,0.3-1,0.5c-0.3,0.2-0.5,0.3-0.7,0.5
			c-0.2,0.1-0.4,0.2-0.6,0.2c-0.2,0-0.3,0-0.4-0.1s-0.2-0.2-0.3-0.3l-0.4-0.8c0.7-0.7,1.5-1.2,2.4-1.6c0.9-0.4,1.8-0.5,2.8-0.5
			c0.7,0,1.4,0.1,2,0.4c0.6,0.2,1.1,0.6,1.5,1c0.4,0.4,0.7,1,0.9,1.6c0.2,0.6,0.3,1.3,0.3,2.1V45.8z M205.9,44.4
			c0.4,0,0.8,0,1.1-0.1c0.3-0.1,0.7-0.2,1-0.4c0.3-0.2,0.6-0.3,0.9-0.6s0.5-0.5,0.8-0.8v-2.8c-1.1,0-2,0.1-2.8,0.2
			c-0.8,0.1-1.4,0.3-1.8,0.5s-0.8,0.5-1,0.8s-0.3,0.6-0.3,1c0,0.4,0.1,0.7,0.2,0.9c0.1,0.3,0.3,0.5,0.5,0.6c0.2,0.2,0.4,0.3,0.7,0.4
			S205.6,44.4,205.9,44.4z"/>
		<path class="st5" d="M215.6,45.8V32.4h1.3c0.3,0,0.4,0,0.5,0.1s0.2,0.3,0.2,0.5l0.2,2.1c0.5-0.9,1-1.7,1.7-2.2
			c0.7-0.5,1.5-0.8,2.4-0.8c0.4,0,0.7,0,1,0.1c0.3,0.1,0.6,0.2,0.8,0.3l-0.3,1.8c-0.1,0.2-0.2,0.3-0.4,0.3c-0.1,0-0.3,0-0.6-0.1
			c-0.3-0.1-0.6-0.1-1.1-0.1c-0.8,0-1.5,0.2-2.1,0.7c-0.5,0.5-1,1.2-1.4,2.1v8.5H215.6z"/>
		<path class="st5" d="M226.2,45.8V32.4h1.3c0.3,0,0.4,0,0.5,0.1s0.2,0.3,0.2,0.5l0.2,2.1c0.5-0.9,1-1.7,1.7-2.2
			c0.7-0.5,1.5-0.8,2.4-0.8c0.4,0,0.7,0,1,0.1c0.3,0.1,0.6,0.2,0.8,0.3l-0.3,1.8c-0.1,0.2-0.2,0.3-0.4,0.3c-0.1,0-0.3,0-0.6-0.1
			c-0.3-0.1-0.6-0.1-1.1-0.1c-0.8,0-1.5,0.2-2.1,0.7c-0.5,0.5-1,1.2-1.4,2.1v8.5H226.2z"/>
		<path class="st5" d="M246.2,45.8h-1c-0.2,0-0.4,0-0.6-0.1s-0.2-0.2-0.3-0.4L244,44c-0.4,0.3-0.7,0.6-1,0.9
			c-0.3,0.2-0.7,0.5-1.1,0.6c-0.4,0.2-0.8,0.3-1.2,0.4c-0.4,0.1-0.9,0.1-1.4,0.1c-0.5,0-1-0.1-1.5-0.2c-0.5-0.1-0.8-0.4-1.2-0.7
			s-0.6-0.7-0.8-1.1c-0.2-0.4-0.3-1-0.3-1.6c0-0.5,0.1-1,0.4-1.5s0.8-0.9,1.4-1.3c0.6-0.4,1.5-0.7,2.5-0.9c1-0.2,2.3-0.4,3.8-0.4v-1
			c0-1-0.2-1.8-0.7-2.4c-0.4-0.5-1.1-0.8-2-0.8c-0.6,0-1.1,0.1-1.4,0.2c-0.4,0.1-0.7,0.3-1,0.5c-0.3,0.2-0.5,0.3-0.7,0.5
			c-0.2,0.1-0.4,0.2-0.6,0.2c-0.2,0-0.3,0-0.4-0.1c-0.1-0.1-0.2-0.2-0.3-0.3l-0.4-0.8c0.7-0.7,1.5-1.2,2.4-1.6s1.8-0.5,2.8-0.5
			c0.7,0,1.4,0.1,2,0.4s1.1,0.6,1.5,1c0.4,0.4,0.7,1,0.9,1.6s0.3,1.3,0.3,2.1V45.8z M240.1,44.4c0.4,0,0.8,0,1.1-0.1
			c0.3-0.1,0.7-0.2,1-0.4c0.3-0.2,0.6-0.3,0.9-0.6s0.5-0.5,0.8-0.8v-2.8c-1.1,0-2,0.1-2.8,0.2c-0.8,0.1-1.4,0.3-1.8,0.5
			s-0.8,0.5-1,0.8c-0.2,0.3-0.3,0.6-0.3,1c0,0.4,0.1,0.7,0.2,0.9c0.1,0.3,0.3,0.5,0.5,0.6c0.2,0.2,0.4,0.3,0.7,0.4
			S239.8,44.4,240.1,44.4z"/>
		<path class="st5" d="M252.9,28.2c0,0.2,0,0.4-0.1,0.6c-0.1,0.2-0.2,0.4-0.4,0.5c-0.2,0.2-0.3,0.3-0.5,0.4s-0.4,0.1-0.6,0.1
			s-0.4,0-0.6-0.1c-0.2-0.1-0.4-0.2-0.5-0.4c-0.2-0.2-0.3-0.3-0.4-0.5c-0.1-0.2-0.1-0.4-0.1-0.6s0-0.4,0.1-0.7
			c0.1-0.2,0.2-0.4,0.4-0.5c0.2-0.2,0.3-0.3,0.5-0.4c0.2-0.1,0.4-0.1,0.6-0.1s0.4,0,0.6,0.1s0.4,0.2,0.5,0.4
			c0.2,0.2,0.3,0.3,0.4,0.5C252.8,27.8,252.9,28,252.9,28.2z M252.3,32.4v13.4H250V32.4H252.3z"/>
		<path class="st5" d="M256.5,45.8V32.4h1.4c0.3,0,0.5,0.2,0.6,0.5l0.2,1.5c0.6-0.6,1.2-1.2,1.9-1.6c0.7-0.4,1.5-0.6,2.5-0.6
			c0.7,0,1.4,0.1,1.9,0.4c0.6,0.2,1,0.6,1.4,1c0.4,0.4,0.7,1,0.9,1.6c0.2,0.6,0.3,1.3,0.3,2.1v8.5h-2.3v-8.5c0-1-0.2-1.8-0.7-2.4
			c-0.5-0.6-1.2-0.8-2.1-0.8c-0.7,0-1.3,0.2-1.9,0.5c-0.6,0.3-1.2,0.8-1.7,1.4v9.8H256.5z"/>
		<path class="st5" d="M280.9,45.8h-1c-0.2,0-0.4,0-0.6-0.1s-0.2-0.2-0.3-0.4l-0.3-1.2c-0.4,0.3-0.7,0.6-1,0.9
			c-0.3,0.2-0.7,0.5-1.1,0.6c-0.4,0.2-0.8,0.3-1.2,0.4c-0.4,0.1-0.9,0.1-1.4,0.1c-0.5,0-1-0.1-1.5-0.2c-0.5-0.1-0.8-0.4-1.2-0.7
			s-0.6-0.7-0.8-1.1c-0.2-0.4-0.3-1-0.3-1.6c0-0.5,0.1-1,0.4-1.5s0.8-0.9,1.4-1.3c0.6-0.4,1.5-0.7,2.5-0.9c1-0.2,2.3-0.4,3.8-0.4v-1
			c0-1-0.2-1.8-0.7-2.4c-0.4-0.5-1.1-0.8-2-0.8c-0.6,0-1.1,0.1-1.4,0.2c-0.4,0.1-0.7,0.3-1,0.5c-0.3,0.2-0.5,0.3-0.7,0.5
			c-0.2,0.1-0.4,0.2-0.6,0.2c-0.2,0-0.3,0-0.4-0.1c-0.1-0.1-0.2-0.2-0.3-0.3l-0.4-0.8c0.7-0.7,1.5-1.2,2.4-1.6s1.8-0.5,2.8-0.5
			c0.7,0,1.4,0.1,2,0.4s1.1,0.6,1.5,1c0.4,0.4,0.7,1,0.9,1.6s0.3,1.3,0.3,2.1V45.8z M274.8,44.4c0.4,0,0.8,0,1.1-0.1
			c0.3-0.1,0.7-0.2,1-0.4c0.3-0.2,0.6-0.3,0.9-0.6s0.5-0.5,0.8-0.8v-2.8c-1.1,0-2,0.1-2.8,0.2c-0.8,0.1-1.4,0.3-1.8,0.5
			s-0.8,0.5-1,0.8c-0.2,0.3-0.3,0.6-0.3,1c0,0.4,0.1,0.7,0.2,0.9c0.1,0.3,0.3,0.5,0.5,0.6c0.2,0.2,0.4,0.3,0.7,0.4
			S274.5,44.4,274.8,44.4z"/>
		<path class="st5" d="M289,32.2c0.6,0,1.1,0.1,1.6,0.2c0.5,0.1,1,0.3,1.4,0.6h3.6v0.9c0,0.3-0.2,0.5-0.6,0.6l-1.5,0.2
			c0.3,0.6,0.4,1.2,0.4,1.9c0,0.7-0.1,1.2-0.4,1.8c-0.3,0.5-0.6,1-1,1.4c-0.4,0.4-1,0.7-1.6,0.9c-0.6,0.2-1.3,0.3-2,0.3
			c-0.6,0-1.2-0.1-1.8-0.2c-0.3,0.2-0.5,0.4-0.6,0.6c-0.1,0.2-0.2,0.4-0.2,0.6c0,0.3,0.1,0.6,0.4,0.7s0.6,0.3,1,0.4
			c0.4,0.1,0.9,0.1,1.4,0.1s1.1,0,1.6,0c0.6,0,1.1,0,1.6,0.1c0.5,0.1,1,0.3,1.4,0.5c0.4,0.2,0.8,0.5,1,0.9s0.4,0.9,0.4,1.5
			c0,0.6-0.1,1.1-0.4,1.7c-0.3,0.5-0.7,1-1.2,1.4c-0.5,0.4-1.2,0.8-2,1c-0.8,0.3-1.6,0.4-2.6,0.4s-1.8-0.1-2.6-0.3
			c-0.7-0.2-1.3-0.5-1.8-0.8s-0.8-0.7-1.1-1.1c-0.2-0.4-0.4-0.9-0.4-1.3c0-0.7,0.2-1.2,0.6-1.7c0.4-0.5,1-0.8,1.7-1.1
			c-0.4-0.2-0.7-0.4-0.9-0.7c-0.2-0.3-0.3-0.7-0.3-1.2c0-0.2,0-0.4,0.1-0.6c0.1-0.2,0.2-0.4,0.3-0.6c0.1-0.2,0.3-0.4,0.5-0.6
			c0.2-0.2,0.5-0.3,0.7-0.5c-0.7-0.4-1.2-0.9-1.5-1.5c-0.4-0.6-0.6-1.3-0.6-2.1c0-0.7,0.1-1.2,0.4-1.8c0.3-0.5,0.6-1,1-1.4
			c0.4-0.4,1-0.7,1.6-0.9C287.6,32.3,288.3,32.2,289,32.2z M293.2,46.5c0-0.3-0.1-0.6-0.3-0.8s-0.4-0.4-0.8-0.5s-0.7-0.2-1.1-0.2
			c-0.4-0.1-0.8-0.1-1.3-0.1s-0.9,0-1.4,0s-0.9-0.1-1.4-0.2c-0.5,0.2-0.9,0.5-1.2,0.9c-0.3,0.3-0.5,0.8-0.5,1.2
			c0,0.3,0.1,0.6,0.2,0.8c0.2,0.3,0.4,0.5,0.7,0.7s0.7,0.3,1.2,0.4c0.5,0.1,1,0.2,1.7,0.2c0.6,0,1.2-0.1,1.7-0.2
			c0.5-0.1,0.9-0.3,1.3-0.5s0.6-0.5,0.8-0.8S293.2,46.8,293.2,46.5z M289,39.3c0.5,0,0.9-0.1,1.3-0.2c0.4-0.1,0.7-0.3,0.9-0.6
			s0.4-0.5,0.6-0.8c0.1-0.3,0.2-0.7,0.2-1.1c0-0.8-0.2-1.5-0.7-2c-0.5-0.5-1.2-0.7-2.2-0.7c-0.9,0-1.7,0.2-2.2,0.7
			c-0.5,0.5-0.7,1.1-0.7,2c0,0.4,0.1,0.8,0.2,1.1c0.1,0.3,0.3,0.6,0.6,0.8s0.5,0.4,0.9,0.6S288.5,39.3,289,39.3z"/>
		<path class="st5" d="M303.3,32.2c0.8,0,1.5,0.1,2.2,0.4c0.7,0.3,1.3,0.7,1.8,1.2c0.5,0.5,0.9,1.1,1.2,1.9c0.3,0.7,0.4,1.6,0.4,2.5
			c0,0.4,0,0.6-0.1,0.7c-0.1,0.1-0.2,0.2-0.4,0.2h-8.9c0,0.8,0.1,1.6,0.3,2.2s0.5,1.1,0.9,1.6c0.4,0.4,0.8,0.7,1.3,0.9
			c0.5,0.2,1.1,0.3,1.7,0.3c0.6,0,1.1-0.1,1.5-0.2c0.4-0.1,0.8-0.3,1.1-0.4s0.6-0.3,0.8-0.4c0.2-0.1,0.4-0.2,0.5-0.2
			c0.2,0,0.3,0.1,0.4,0.2l0.7,0.9c-0.3,0.4-0.6,0.7-1,0.9c-0.4,0.3-0.8,0.5-1.3,0.6c-0.5,0.2-0.9,0.3-1.4,0.4
			c-0.5,0.1-1,0.1-1.5,0.1c-0.9,0-1.8-0.2-2.6-0.5c-0.8-0.3-1.5-0.8-2-1.4c-0.6-0.6-1-1.3-1.3-2.2S297,40,297,38.8
			c0-0.9,0.1-1.8,0.4-2.6c0.3-0.8,0.7-1.5,1.2-2.1c0.5-0.6,1.2-1.1,2-1.4C301.4,32.4,302.3,32.2,303.3,32.2z M303.3,34
			c-1.1,0-2,0.3-2.7,1c-0.7,0.7-1.1,1.6-1.2,2.7h7.3c0-0.5-0.1-1-0.2-1.5c-0.1-0.5-0.4-0.8-0.7-1.2c-0.3-0.3-0.6-0.6-1.1-0.8
			C304.3,34,303.8,34,303.3,34z"/>
		<path class="st5" d="M316.9,50.3V32.4h1.4c0.3,0,0.5,0.2,0.6,0.5l0.2,1.6c0.6-0.7,1.2-1.3,2-1.7c0.7-0.4,1.6-0.6,2.5-0.6
			c0.8,0,1.5,0.1,2.1,0.4c0.6,0.3,1.2,0.7,1.6,1.3c0.4,0.6,0.8,1.3,1,2.1s0.4,1.8,0.4,2.9c0,1-0.1,1.9-0.4,2.7s-0.6,1.6-1.1,2.2
			c-0.5,0.6-1.1,1.1-1.8,1.5c-0.7,0.4-1.5,0.5-2.4,0.5c-0.8,0-1.5-0.1-2.1-0.4c-0.6-0.3-1.1-0.7-1.5-1.2v5.9H316.9z M322.8,34.1
			c-0.8,0-1.4,0.2-2,0.5c-0.6,0.4-1.1,0.8-1.6,1.5v6.5c0.4,0.6,0.9,1,1.4,1.2c0.5,0.2,1.1,0.4,1.7,0.4c1.2,0,2.2-0.4,2.9-1.3
			s1-2.2,1-3.8c0-0.9-0.1-1.6-0.2-2.2c-0.2-0.6-0.4-1.1-0.7-1.5s-0.6-0.7-1.1-0.9S323.4,34.1,322.8,34.1z"/>
		<path class="st5" d="M331.4,45.8V32.4h1.3c0.3,0,0.4,0,0.5,0.1s0.2,0.3,0.2,0.5l0.2,2.1c0.5-0.9,1-1.7,1.7-2.2
			c0.7-0.5,1.5-0.8,2.4-0.8c0.4,0,0.7,0,1,0.1c0.3,0.1,0.6,0.2,0.8,0.3l-0.3,1.8c-0.1,0.2-0.2,0.3-0.4,0.3c-0.1,0-0.3,0-0.6-0.1
			c-0.3-0.1-0.6-0.1-1.1-0.1c-0.8,0-1.5,0.2-2.1,0.7c-0.5,0.5-1,1.2-1.4,2.1v8.5H331.4z"/>
		<path class="st5" d="M345.2,28.2c0,0.2,0,0.4-0.1,0.6c-0.1,0.2-0.2,0.4-0.4,0.5c-0.2,0.2-0.3,0.3-0.5,0.4s-0.4,0.1-0.6,0.1
			s-0.4,0-0.6-0.1c-0.2-0.1-0.4-0.2-0.5-0.4c-0.2-0.2-0.3-0.3-0.4-0.5c-0.1-0.2-0.1-0.4-0.1-0.6s0-0.4,0.1-0.7
			c0.1-0.2,0.2-0.4,0.4-0.5c0.2-0.2,0.3-0.3,0.5-0.4c0.2-0.1,0.4-0.1,0.6-0.1s0.4,0,0.6,0.1s0.4,0.2,0.5,0.4
			c0.2,0.2,0.3,0.3,0.4,0.5C345.1,27.8,345.2,28,345.2,28.2z M344.7,32.4v13.4h-2.3V32.4H344.7z"/>
		<path class="st5" d="M347.1,32.4h1.9c0.2,0,0.3,0,0.5,0.1s0.2,0.2,0.3,0.3l3.4,8.6c0.1,0.3,0.2,0.6,0.3,0.9
			c0.1,0.3,0.1,0.6,0.2,0.9c0.1-0.3,0.1-0.6,0.2-0.9s0.2-0.6,0.3-0.9l3.4-8.6c0.1-0.1,0.1-0.3,0.3-0.3c0.1-0.1,0.3-0.1,0.4-0.1h1.8
			l-5.4,13.4h-2.1L347.1,32.4z"/>
		<path class="st5" d="M367.3,32.2c0.8,0,1.5,0.1,2.2,0.4c0.7,0.3,1.3,0.7,1.8,1.2c0.5,0.5,0.9,1.1,1.2,1.9c0.3,0.7,0.4,1.6,0.4,2.5
			c0,0.4,0,0.6-0.1,0.7c-0.1,0.1-0.2,0.2-0.4,0.2h-8.9c0,0.8,0.1,1.6,0.3,2.2s0.5,1.1,0.9,1.6c0.4,0.4,0.8,0.7,1.3,0.9
			c0.5,0.2,1.1,0.3,1.7,0.3c0.6,0,1.1-0.1,1.5-0.2c0.4-0.1,0.8-0.3,1.1-0.4s0.6-0.3,0.8-0.4c0.2-0.1,0.4-0.2,0.5-0.2
			c0.2,0,0.3,0.1,0.4,0.2l0.7,0.9c-0.3,0.4-0.6,0.7-1,0.9c-0.4,0.3-0.8,0.5-1.3,0.6c-0.5,0.2-0.9,0.3-1.4,0.4
			c-0.5,0.1-1,0.1-1.5,0.1c-0.9,0-1.8-0.2-2.6-0.5c-0.8-0.3-1.5-0.8-2-1.4c-0.6-0.6-1-1.3-1.3-2.2S361,40,361,38.8
			c0-0.9,0.1-1.8,0.4-2.6c0.3-0.8,0.7-1.5,1.2-2.1c0.5-0.6,1.2-1.1,2-1.4C365.4,32.4,366.3,32.2,367.3,32.2z M367.3,34
			c-1.1,0-2,0.3-2.7,1c-0.7,0.7-1.1,1.6-1.2,2.7h7.3c0-0.5-0.1-1-0.2-1.5c-0.1-0.5-0.4-0.8-0.7-1.2c-0.3-0.3-0.6-0.6-1.1-0.8
			C368.3,34,367.8,34,367.3,34z M371.1,26.7l-3.1,3.4c-0.1,0.1-0.2,0.2-0.4,0.3c-0.1,0.1-0.3,0.1-0.5,0.1h-1.4l2-3.2
			c0.1-0.2,0.3-0.3,0.4-0.4c0.1-0.1,0.4-0.1,0.6-0.1H371.1z"/>
		<path class="st5" d="M390.3,45.8c-0.3,0-0.5-0.2-0.6-0.5l-0.2-1.6c-0.6,0.7-1.2,1.2-2,1.7c-0.7,0.4-1.6,0.6-2.5,0.6
			c-0.8,0-1.5-0.1-2.1-0.4c-0.6-0.3-1.2-0.7-1.6-1.3s-0.8-1.3-1-2.1s-0.4-1.8-0.4-2.9c0-1,0.1-1.9,0.4-2.7s0.6-1.6,1.1-2.2
			c0.5-0.6,1.1-1.1,1.8-1.5c0.7-0.4,1.5-0.5,2.4-0.5c0.8,0,1.5,0.1,2.1,0.4c0.6,0.3,1.1,0.7,1.6,1.2v-7.4h2.3v19.4H390.3z
			 M385.7,44.1c0.8,0,1.4-0.2,2-0.5c0.6-0.4,1.1-0.8,1.6-1.5v-6.5c-0.4-0.6-0.9-1-1.4-1.2c-0.5-0.2-1.1-0.3-1.7-0.3
			c-1.2,0-2.2,0.4-2.9,1.3s-1,2.2-1,3.8c0,0.9,0.1,1.6,0.2,2.2c0.1,0.6,0.4,1.1,0.7,1.5c0.3,0.4,0.6,0.7,1.1,0.9
			S385.2,44.1,385.7,44.1z"/>
		<path class="st5" d="M400.9,32.2c0.8,0,1.5,0.1,2.2,0.4c0.7,0.3,1.3,0.7,1.8,1.2c0.5,0.5,0.9,1.1,1.2,1.9c0.3,0.7,0.4,1.6,0.4,2.5
			c0,0.4,0,0.6-0.1,0.7c-0.1,0.1-0.2,0.2-0.4,0.2H397c0,0.8,0.1,1.6,0.3,2.2s0.5,1.1,0.9,1.6c0.4,0.4,0.8,0.7,1.3,0.9
			c0.5,0.2,1.1,0.3,1.7,0.3c0.6,0,1.1-0.1,1.5-0.2c0.4-0.1,0.8-0.3,1.1-0.4s0.6-0.3,0.8-0.4c0.2-0.1,0.4-0.2,0.5-0.2
			c0.2,0,0.3,0.1,0.4,0.2l0.7,0.9c-0.3,0.4-0.6,0.7-1,0.9c-0.4,0.3-0.8,0.5-1.3,0.6c-0.5,0.2-0.9,0.3-1.4,0.4
			c-0.5,0.1-1,0.1-1.5,0.1c-0.9,0-1.8-0.2-2.6-0.5c-0.8-0.3-1.5-0.8-2-1.4c-0.6-0.6-1-1.3-1.3-2.2s-0.5-1.9-0.5-3.1
			c0-0.9,0.1-1.8,0.4-2.6c0.3-0.8,0.7-1.5,1.2-2.1c0.5-0.6,1.2-1.1,2-1.4C399.1,32.4,399.9,32.2,400.9,32.2z M401,34
			c-1.1,0-2,0.3-2.7,1c-0.7,0.7-1.1,1.6-1.2,2.7h7.3c0-0.5-0.1-1-0.2-1.5c-0.1-0.5-0.4-0.8-0.7-1.2c-0.3-0.3-0.6-0.6-1.1-0.8
			C402,34,401.5,34,401,34z"/>
		<path class="st5" d="M417.1,34.6c-0.1,0.2-0.3,0.3-0.5,0.3c-0.1,0-0.3,0-0.4-0.1s-0.4-0.2-0.6-0.3c-0.2-0.1-0.5-0.2-0.9-0.3
			c-0.3-0.1-0.7-0.2-1.2-0.2c-0.4,0-0.8,0.1-1.1,0.2c-0.3,0.1-0.6,0.2-0.8,0.4c-0.2,0.2-0.4,0.4-0.5,0.6c-0.1,0.2-0.2,0.5-0.2,0.8
			c0,0.3,0.1,0.6,0.3,0.9c0.2,0.2,0.5,0.4,0.8,0.6s0.7,0.3,1.1,0.4c0.4,0.1,0.8,0.3,1.3,0.4c0.4,0.1,0.9,0.3,1.3,0.5
			c0.4,0.2,0.8,0.4,1.1,0.7s0.6,0.6,0.8,1c0.2,0.4,0.3,0.8,0.3,1.4c0,0.6-0.1,1.2-0.3,1.7c-0.2,0.5-0.5,1-1,1.4
			c-0.4,0.4-1,0.7-1.6,0.9c-0.6,0.2-1.3,0.3-2.2,0.3c-0.9,0-1.8-0.2-2.5-0.5c-0.8-0.3-1.4-0.7-1.9-1.2l0.6-0.9
			c0.1-0.1,0.2-0.2,0.3-0.3c0.1-0.1,0.2-0.1,0.4-0.1s0.3,0.1,0.5,0.2s0.4,0.3,0.6,0.4s0.6,0.3,0.9,0.4c0.4,0.1,0.8,0.2,1.3,0.2
			c0.5,0,0.9-0.1,1.2-0.2c0.3-0.1,0.6-0.3,0.9-0.5s0.4-0.4,0.5-0.7c0.1-0.3,0.2-0.5,0.2-0.8c0-0.4-0.1-0.7-0.3-0.9
			c-0.2-0.2-0.5-0.4-0.8-0.6c-0.3-0.2-0.7-0.3-1.1-0.4c-0.4-0.1-0.8-0.3-1.3-0.4c-0.4-0.1-0.9-0.3-1.3-0.5c-0.4-0.2-0.8-0.4-1.1-0.7
			s-0.6-0.6-0.8-1c-0.2-0.4-0.3-0.9-0.3-1.5c0-0.5,0.1-1,0.3-1.5c0.2-0.5,0.5-0.9,0.9-1.2c0.4-0.4,0.9-0.6,1.5-0.9s1.3-0.3,2-0.3
			c0.9,0,1.7,0.1,2.4,0.4c0.7,0.3,1.3,0.7,1.8,1.1L417.1,34.6z"/>
		<path class="st5" d="M426,45.8V32.4h1.3c0.3,0,0.4,0,0.5,0.1s0.2,0.3,0.2,0.5l0.2,2.1c0.5-0.9,1-1.7,1.7-2.2
			c0.7-0.5,1.5-0.8,2.4-0.8c0.4,0,0.7,0,1,0.1c0.3,0.1,0.6,0.2,0.8,0.3l-0.3,1.8c-0.1,0.2-0.2,0.3-0.4,0.3c-0.1,0-0.3,0-0.6-0.1
			c-0.3-0.1-0.6-0.1-1.1-0.1c-0.8,0-1.5,0.2-2.1,0.7c-0.5,0.5-1,1.2-1.4,2.1v8.5H426z"/>
		<path class="st5" d="M441.9,32.2c0.8,0,1.5,0.1,2.2,0.4c0.7,0.3,1.3,0.7,1.8,1.2c0.5,0.5,0.9,1.1,1.2,1.9c0.3,0.7,0.4,1.6,0.4,2.5
			c0,0.4,0,0.6-0.1,0.7c-0.1,0.1-0.2,0.2-0.4,0.2H438c0,0.8,0.1,1.6,0.3,2.2s0.5,1.1,0.9,1.6c0.4,0.4,0.8,0.7,1.3,0.9
			c0.5,0.2,1.1,0.3,1.7,0.3c0.6,0,1.1-0.1,1.5-0.2c0.4-0.1,0.8-0.3,1.1-0.4s0.6-0.3,0.8-0.4c0.2-0.1,0.4-0.2,0.5-0.2
			c0.2,0,0.3,0.1,0.4,0.2l0.7,0.9c-0.3,0.4-0.6,0.7-1,0.9c-0.4,0.3-0.8,0.5-1.3,0.6c-0.5,0.2-0.9,0.3-1.4,0.4
			c-0.5,0.1-1,0.1-1.5,0.1c-0.9,0-1.8-0.2-2.6-0.5c-0.8-0.3-1.5-0.8-2-1.4c-0.6-0.6-1-1.3-1.3-2.2s-0.5-1.9-0.5-3.1
			c0-0.9,0.1-1.8,0.4-2.6c0.3-0.8,0.7-1.5,1.2-2.1c0.5-0.6,1.2-1.1,2-1.4C440,32.4,440.9,32.2,441.9,32.2z M441.9,34
			c-1.1,0-2,0.3-2.7,1c-0.7,0.7-1.1,1.6-1.2,2.7h7.3c0-0.5-0.1-1-0.2-1.5c-0.1-0.5-0.4-0.8-0.7-1.2c-0.3-0.3-0.6-0.6-1.1-0.8
			C442.9,34,442.5,34,441.9,34z M445.8,26.7l-3.1,3.4c-0.1,0.1-0.2,0.2-0.4,0.3c-0.1,0.1-0.3,0.1-0.5,0.1h-1.4l2-3.2
			c0.1-0.2,0.3-0.3,0.4-0.4c0.1-0.1,0.4-0.1,0.6-0.1H445.8z"/>
		<path class="st5" d="M450.9,45.8V34.4l-1.5-0.2c-0.2,0-0.3-0.1-0.5-0.2c-0.1-0.1-0.2-0.2-0.2-0.4v-1h2.1v-1.3c0-0.8,0.1-1.4,0.3-2
			c0.2-0.6,0.5-1.1,0.9-1.5c0.4-0.4,0.9-0.7,1.4-0.9s1.2-0.3,1.9-0.3c0.6,0,1.2,0.1,1.7,0.3l-0.1,1.2c0,0.2-0.1,0.3-0.2,0.3
			s-0.3,0.1-0.6,0.1h-0.4c-0.4,0-0.8,0.1-1.1,0.2c-0.3,0.1-0.6,0.3-0.9,0.5s-0.4,0.5-0.5,0.9c-0.1,0.4-0.2,0.9-0.2,1.4v1.2h3.9v1.7
			h-3.8v11.4H450.9z"/>
		<path class="st5" d="M461.3,32.4V41c0,1,0.2,1.8,0.7,2.3s1.2,0.8,2.1,0.8c0.7,0,1.3-0.2,1.9-0.5s1.2-0.8,1.7-1.4v-9.8h2.3v13.4
			h-1.4c-0.3,0-0.5-0.2-0.6-0.5l-0.2-1.4c-0.6,0.6-1.2,1.2-2,1.5c-0.7,0.4-1.5,0.6-2.5,0.6c-0.7,0-1.4-0.1-1.9-0.4
			c-0.6-0.2-1-0.6-1.4-1c-0.4-0.4-0.7-1-0.9-1.6c-0.2-0.6-0.3-1.3-0.3-2.1v-8.5H461.3z"/>
		<path class="st5" d="M478.4,32.2c0.6,0,1.1,0.1,1.6,0.2c0.5,0.1,1,0.3,1.4,0.6h3.6v0.9c0,0.3-0.2,0.5-0.6,0.6l-1.5,0.2
			c0.3,0.6,0.4,1.2,0.4,1.9c0,0.7-0.1,1.2-0.4,1.8c-0.3,0.5-0.6,1-1,1.4c-0.4,0.4-1,0.7-1.6,0.9c-0.6,0.2-1.3,0.3-2,0.3
			c-0.6,0-1.2-0.1-1.8-0.2c-0.3,0.2-0.5,0.4-0.6,0.6c-0.1,0.2-0.2,0.4-0.2,0.6c0,0.3,0.1,0.6,0.4,0.7s0.6,0.3,1,0.4
			c0.4,0.1,0.9,0.1,1.4,0.1s1.1,0,1.6,0c0.6,0,1.1,0,1.6,0.1c0.5,0.1,1,0.3,1.4,0.5c0.4,0.2,0.8,0.5,1,0.9s0.4,0.9,0.4,1.5
			c0,0.6-0.1,1.1-0.4,1.7c-0.3,0.5-0.7,1-1.2,1.4c-0.5,0.4-1.2,0.8-2,1c-0.8,0.3-1.6,0.4-2.6,0.4s-1.8-0.1-2.6-0.3
			c-0.7-0.2-1.3-0.5-1.8-0.8s-0.8-0.7-1.1-1.1c-0.2-0.4-0.4-0.9-0.4-1.3c0-0.7,0.2-1.2,0.6-1.7c0.4-0.5,1-0.8,1.7-1.1
			c-0.4-0.2-0.7-0.4-0.9-0.7c-0.2-0.3-0.3-0.7-0.3-1.2c0-0.2,0-0.4,0.1-0.6c0.1-0.2,0.2-0.4,0.3-0.6c0.1-0.2,0.3-0.4,0.5-0.6
			c0.2-0.2,0.5-0.3,0.7-0.5c-0.7-0.4-1.2-0.9-1.5-1.5c-0.4-0.6-0.6-1.3-0.6-2.1c0-0.7,0.1-1.2,0.4-1.8c0.3-0.5,0.6-1,1-1.4
			c0.4-0.4,1-0.7,1.6-0.9C477,32.3,477.7,32.2,478.4,32.2z M482.6,46.5c0-0.3-0.1-0.6-0.3-0.8s-0.4-0.4-0.8-0.5s-0.7-0.2-1.1-0.2
			c-0.4-0.1-0.8-0.1-1.3-0.1s-0.9,0-1.4,0s-0.9-0.1-1.4-0.2c-0.5,0.2-0.9,0.5-1.2,0.9c-0.3,0.3-0.5,0.8-0.5,1.2
			c0,0.3,0.1,0.6,0.2,0.8c0.2,0.3,0.4,0.5,0.7,0.7s0.7,0.3,1.2,0.4c0.5,0.1,1,0.2,1.7,0.2c0.6,0,1.2-0.1,1.7-0.2
			c0.5-0.1,0.9-0.3,1.3-0.5s0.6-0.5,0.8-0.8S482.6,46.8,482.6,46.5z M478.4,39.3c0.5,0,0.9-0.1,1.3-0.2c0.4-0.1,0.7-0.3,0.9-0.6
			s0.4-0.5,0.6-0.8c0.1-0.3,0.2-0.7,0.2-1.1c0-0.8-0.2-1.5-0.7-2c-0.5-0.5-1.2-0.7-2.2-0.7c-0.9,0-1.7,0.2-2.2,0.7
			c-0.5,0.5-0.7,1.1-0.7,2c0,0.4,0.1,0.8,0.2,1.1c0.1,0.3,0.3,0.6,0.6,0.8s0.5,0.4,0.9,0.6S478,39.3,478.4,39.3z"/>
		<path class="st5" d="M490.6,28.2c0,0.2,0,0.4-0.1,0.6c-0.1,0.2-0.2,0.4-0.4,0.5c-0.2,0.2-0.3,0.3-0.5,0.4s-0.4,0.1-0.6,0.1
			s-0.4,0-0.6-0.1c-0.2-0.1-0.4-0.2-0.5-0.4c-0.2-0.2-0.3-0.3-0.4-0.5c-0.1-0.2-0.1-0.4-0.1-0.6s0-0.4,0.1-0.7
			c0.1-0.2,0.2-0.4,0.4-0.5c0.2-0.2,0.3-0.3,0.5-0.4c0.2-0.1,0.4-0.1,0.6-0.1s0.4,0,0.6,0.1s0.4,0.2,0.5,0.4
			c0.2,0.2,0.3,0.3,0.4,0.5C490.5,27.8,490.6,28,490.6,28.2z M490,32.4v13.4h-2.3V32.4H490z"/>
		<path class="st5" d="M499.5,32.2c0.8,0,1.5,0.1,2.2,0.4c0.7,0.3,1.3,0.7,1.8,1.2c0.5,0.5,0.9,1.1,1.2,1.9c0.3,0.7,0.4,1.6,0.4,2.5
			c0,0.4,0,0.6-0.1,0.7c-0.1,0.1-0.2,0.2-0.4,0.2h-8.9c0,0.8,0.1,1.6,0.3,2.2s0.5,1.1,0.9,1.6c0.4,0.4,0.8,0.7,1.3,0.9
			c0.5,0.2,1.1,0.3,1.7,0.3c0.6,0,1.1-0.1,1.5-0.2c0.4-0.1,0.8-0.3,1.1-0.4s0.6-0.3,0.8-0.4c0.2-0.1,0.4-0.2,0.5-0.2
			c0.2,0,0.3,0.1,0.4,0.2l0.7,0.9c-0.3,0.4-0.6,0.7-1,0.9c-0.4,0.3-0.8,0.5-1.3,0.6c-0.5,0.2-0.9,0.3-1.4,0.4
			c-0.5,0.1-1,0.1-1.5,0.1c-0.9,0-1.8-0.2-2.6-0.5c-0.8-0.3-1.5-0.8-2-1.4c-0.6-0.6-1-1.3-1.3-2.2s-0.5-1.9-0.5-3.1
			c0-0.9,0.1-1.8,0.4-2.6c0.3-0.8,0.7-1.5,1.2-2.1c0.5-0.6,1.2-1.1,2-1.4C497.6,32.4,498.5,32.2,499.5,32.2z M499.5,34
			c-1.1,0-2,0.3-2.7,1c-0.7,0.7-1.1,1.6-1.2,2.7h7.3c0-0.5-0.1-1-0.2-1.5c-0.1-0.5-0.4-0.8-0.7-1.2c-0.3-0.3-0.6-0.6-1.1-0.8
			C500.5,34,500.1,34,499.5,34z M503.3,26.7l-3.1,3.4c-0.1,0.1-0.2,0.2-0.4,0.3c-0.1,0.1-0.3,0.1-0.5,0.1h-1.4l2-3.2
			c0.1-0.2,0.3-0.3,0.4-0.4c0.1-0.1,0.4-0.1,0.6-0.1H503.3z"/>
		<path class="st5" d="M515.6,34.6c-0.1,0.2-0.3,0.3-0.5,0.3c-0.1,0-0.3,0-0.4-0.1s-0.4-0.2-0.6-0.3c-0.2-0.1-0.5-0.2-0.9-0.3
			c-0.3-0.1-0.7-0.2-1.2-0.2c-0.4,0-0.8,0.1-1.1,0.2c-0.3,0.1-0.6,0.2-0.8,0.4c-0.2,0.2-0.4,0.4-0.5,0.6c-0.1,0.2-0.2,0.5-0.2,0.8
			c0,0.3,0.1,0.6,0.3,0.9c0.2,0.2,0.5,0.4,0.8,0.6s0.7,0.3,1.1,0.4c0.4,0.1,0.8,0.3,1.3,0.4c0.4,0.1,0.9,0.3,1.3,0.5
			c0.4,0.2,0.8,0.4,1.1,0.7s0.6,0.6,0.8,1c0.2,0.4,0.3,0.8,0.3,1.4c0,0.6-0.1,1.2-0.3,1.7c-0.2,0.5-0.5,1-1,1.4
			c-0.4,0.4-1,0.7-1.6,0.9c-0.6,0.2-1.3,0.3-2.2,0.3c-0.9,0-1.8-0.2-2.5-0.5c-0.8-0.3-1.4-0.7-1.9-1.2l0.6-0.9
			c0.1-0.1,0.2-0.2,0.3-0.3c0.1-0.1,0.2-0.1,0.4-0.1s0.3,0.1,0.5,0.2s0.4,0.3,0.6,0.4s0.6,0.3,0.9,0.4c0.4,0.1,0.8,0.2,1.3,0.2
			c0.5,0,0.9-0.1,1.2-0.2c0.3-0.1,0.6-0.3,0.9-0.5s0.4-0.4,0.5-0.7c0.1-0.3,0.2-0.5,0.2-0.8c0-0.4-0.1-0.7-0.3-0.9
			c-0.2-0.2-0.5-0.4-0.8-0.6c-0.3-0.2-0.7-0.3-1.1-0.4c-0.4-0.1-0.8-0.3-1.3-0.4c-0.4-0.1-0.9-0.3-1.3-0.5c-0.4-0.2-0.8-0.4-1.1-0.7
			s-0.6-0.6-0.8-1c-0.2-0.4-0.3-0.9-0.3-1.5c0-0.5,0.1-1,0.3-1.5c0.2-0.5,0.5-0.9,0.9-1.2c0.4-0.4,0.9-0.6,1.5-0.9s1.3-0.3,2-0.3
			c0.9,0,1.7,0.1,2.4,0.4c0.7,0.3,1.3,0.7,1.8,1.1L515.6,34.6z"/>
	</g>
</g>
</svg>
