<?xml version="1.0" encoding="utf-8"?>
<!-- Generator: Adobe Illustrator 27.0.0, SVG Export Plug-In . SVG Version: 6.00 Build 0)  -->
<svg version="1.1" id="Layer_1" xmlns="http://www.w3.org/2000/svg" xmlns:xlink="http://www.w3.org/1999/xlink" x="0px" y="0px"
	 viewBox="0 0 424 50.6" style="enable-background:new 0 0 424 50.6;" xml:space="preserve">
<style type="text/css">
	.st0{display:none;}
	.st1{display:inline;fill:#00497C;}
	.st2{font-family:'Lato-Bold';}
	.st3{font-size:63px;}
	.st4{display:inline;}
	.st5{fill:#00497C;}
	.st6{font-family:'Lato-Regular';}
	.st7{font-size:26.3694px;}
</style>
<g class="st0">
	<text transform="matrix(1 0 0 1 -4.8824 45.9287)" class="st1 st2 st3">RSTP</text>
	<rect x="164.3" y="0.4" class="st1" width="1" height="45.5"/>
	<text transform="matrix(1 0 0 1 182.2754 19.4209)" class="st4"><tspan x="0" y="0" class="st5 st6 st7">Refugee Sponsorship</tspan><tspan x="0" y="26.4" class="st5 st6 st7">Training Program</tspan></text>
</g>
<g>
	<g>
		<path class="st5" d="M8.5,28.1v17.8H0V0.4h13.9c3.1,0,5.8,0.3,8,1c2.2,0.6,4,1.5,5.4,2.7c1.4,1.2,2.5,2.5,3.1,4.1s1,3.4,1,5.3
			c0,1.5-0.2,3-0.7,4.3c-0.5,1.4-1.1,2.6-2,3.7c-0.9,1.1-1.9,2.1-3.2,2.9c-1.2,0.8-2.7,1.5-4.3,2c1.1,0.6,2,1.5,2.8,2.6l11.4,16.8
			h-7.6c-0.7,0-1.4-0.1-1.9-0.4c-0.5-0.3-1-0.7-1.3-1.3l-9.6-14.6c-0.4-0.5-0.8-0.9-1.2-1.2c-0.4-0.2-1.1-0.3-1.9-0.3H8.5z
			 M8.5,22.1h5.3c1.6,0,3-0.2,4.2-0.6c1.2-0.4,2.2-0.9,2.9-1.7c0.8-0.7,1.3-1.5,1.7-2.5c0.4-1,0.6-2,0.6-3.2c0-2.3-0.8-4.1-2.3-5.3
			c-1.5-1.2-3.8-1.9-7-1.9H8.5V22.1z"/>
		<path class="st5" d="M65.4,8.7c-0.2,0.5-0.5,0.8-0.8,1s-0.7,0.3-1.1,0.3c-0.4,0-0.9-0.2-1.4-0.5c-0.5-0.3-1.1-0.7-1.9-1.1
			c-0.7-0.4-1.5-0.8-2.5-1.1c-1-0.3-2.1-0.5-3.4-0.5c-1.2,0-2.2,0.1-3.1,0.4c-0.9,0.3-1.6,0.7-2.2,1.2s-1,1.1-1.3,1.8
			c-0.3,0.7-0.4,1.5-0.4,2.3c0,1.1,0.3,2,0.9,2.7c0.6,0.7,1.4,1.3,2.4,1.8c1,0.5,2.1,1,3.4,1.4c1.3,0.4,2.5,0.8,3.9,1.3
			c1.3,0.5,2.6,1,3.9,1.6c1.3,0.6,2.4,1.4,3.4,2.3c1,0.9,1.8,2,2.4,3.4c0.6,1.3,0.9,2.9,0.9,4.8c0,2.1-0.4,4-1.1,5.8
			c-0.7,1.8-1.7,3.4-3.1,4.7c-1.4,1.3-3,2.4-5,3.2c-2,0.8-4.2,1.1-6.7,1.1c-1.4,0-2.9-0.1-4.3-0.4c-1.4-0.3-2.8-0.7-4-1.2
			c-1.3-0.5-2.5-1.2-3.6-1.9c-1.1-0.7-2.1-1.6-3-2.5l2.5-4.1c0.2-0.3,0.5-0.5,0.8-0.7c0.3-0.2,0.7-0.3,1.1-0.3
			c0.5,0,1.1,0.2,1.7,0.6c0.6,0.4,1.3,0.9,2.2,1.4c0.8,0.5,1.8,1,2.9,1.4c1.1,0.4,2.5,0.6,4,0.6c2.4,0,4.3-0.6,5.6-1.7
			c1.3-1.1,2-2.8,2-4.9c0-1.2-0.3-2.2-0.9-2.9C58.8,29.2,58,28.5,57,28c-1-0.5-2.1-1-3.4-1.3c-1.3-0.4-2.5-0.7-3.8-1.2
			c-1.3-0.4-2.6-0.9-3.8-1.5c-1.3-0.6-2.4-1.4-3.4-2.3c-1-0.9-1.8-2.1-2.4-3.5c-0.6-1.4-0.9-3.2-0.9-5.2c0-1.7,0.3-3.3,1-4.9
			c0.7-1.6,1.6-3,2.9-4.2c1.3-1.2,2.8-2.2,4.7-2.9c1.8-0.7,4-1.1,6.3-1.1c2.7,0,5.2,0.4,7.4,1.3c2.3,0.8,4.2,2,5.8,3.5L65.4,8.7z"/>
		<path class="st5" d="M106.9,0.4v7H93.2v38.6h-8.5V7.3H70.9v-7H106.9z"/>
		<path class="st5" d="M121,29.9v16h-8.5V0.4h14.8c3,0,5.7,0.4,7.9,1.1c2.2,0.7,4.1,1.7,5.5,3c1.4,1.3,2.5,2.8,3.2,4.6
			c0.7,1.8,1,3.7,1,5.9c0,2.2-0.4,4.2-1.1,6.1c-0.7,1.8-1.8,3.4-3.3,4.7c-1.5,1.3-3.3,2.4-5.5,3.1c-2.2,0.7-4.8,1.1-7.7,1.1H121z
			 M121,23.3h6.4c1.6,0,2.9-0.2,4.1-0.6c1.2-0.4,2.1-0.9,2.9-1.7s1.3-1.6,1.7-2.6s0.6-2.2,0.6-3.5c0-1.2-0.2-2.3-0.6-3.3
			c-0.4-1-0.9-1.8-1.7-2.5s-1.7-1.2-2.9-1.6c-1.2-0.4-2.5-0.6-4.1-0.6H121V23.3z"/>
	</g>
	<rect x="164.3" y="0.4" class="st5" width="1" height="45.5"/>
	<g>
		<path class="st5" d="M187.4,11.5v7.9h-2.5V0.5h5.3c1.2,0,2.2,0.1,3.1,0.4c0.9,0.2,1.6,0.6,2.2,1s1,1,1.3,1.7s0.4,1.4,0.4,2.2
			c0,0.7-0.1,1.3-0.3,1.9c-0.2,0.6-0.5,1.1-0.9,1.6c-0.4,0.5-0.9,0.9-1.5,1.2c-0.6,0.3-1.2,0.6-2,0.7c0.3,0.2,0.6,0.5,0.8,0.8
			l5.5,7.5h-2.3c-0.5,0-0.8-0.2-1-0.5l-4.9-6.8c-0.1-0.2-0.3-0.4-0.5-0.5s-0.4-0.1-0.8-0.1H187.4z M187.4,9.7h2.7
			c0.7,0,1.4-0.1,2-0.3s1-0.4,1.4-0.8s0.7-0.7,0.9-1.2s0.3-1,0.3-1.5c0-1.1-0.4-2-1.1-2.5c-0.7-0.6-1.8-0.9-3.3-0.9h-2.8V9.7z"/>
		<path class="st5" d="M206.5,5.9c0.8,0,1.5,0.1,2.2,0.4c0.7,0.3,1.3,0.7,1.8,1.2c0.5,0.5,0.9,1.1,1.2,1.9c0.3,0.7,0.4,1.6,0.4,2.5
			c0,0.4,0,0.6-0.1,0.7s-0.2,0.2-0.4,0.2h-8.9c0,0.8,0.1,1.6,0.3,2.2c0.2,0.6,0.5,1.1,0.9,1.6s0.8,0.7,1.3,0.9s1.1,0.3,1.7,0.3
			c0.6,0,1.1-0.1,1.5-0.2c0.4-0.1,0.8-0.3,1.1-0.4s0.6-0.3,0.8-0.4c0.2-0.1,0.4-0.2,0.5-0.2c0.2,0,0.3,0.1,0.4,0.2l0.7,0.9
			c-0.3,0.4-0.6,0.7-1,0.9c-0.4,0.3-0.8,0.5-1.3,0.6c-0.5,0.2-0.9,0.3-1.4,0.4c-0.5,0.1-1,0.1-1.5,0.1c-0.9,0-1.8-0.2-2.6-0.5
			c-0.8-0.3-1.5-0.8-2-1.4s-1-1.3-1.3-2.2c-0.3-0.9-0.5-1.9-0.5-3.1c0-0.9,0.1-1.8,0.4-2.6c0.3-0.8,0.7-1.5,1.2-2.1
			c0.5-0.6,1.2-1.1,2-1.4S205.5,5.9,206.5,5.9z M206.5,7.6c-1.1,0-2,0.3-2.7,1c-0.7,0.7-1.1,1.6-1.2,2.7h7.3c0-0.5-0.1-1-0.2-1.5
			s-0.4-0.8-0.7-1.2S208.4,8,208,7.9C207.5,7.7,207.1,7.6,206.5,7.6z"/>
		<path class="st5" d="M215.5,19.4V8.1l-1.5-0.2c-0.2,0-0.3-0.1-0.5-0.2c-0.1-0.1-0.2-0.2-0.2-0.4v-1h2.1V5c0-0.8,0.1-1.4,0.3-2
			c0.2-0.6,0.5-1.1,0.9-1.5s0.9-0.7,1.4-0.9s1.2-0.3,1.9-0.3c0.6,0,1.2,0.1,1.7,0.3l-0.1,1.2c0,0.2-0.1,0.3-0.2,0.3
			s-0.3,0.1-0.6,0.1h-0.4c-0.4,0-0.8,0.1-1.1,0.2c-0.3,0.1-0.6,0.3-0.9,0.5s-0.4,0.5-0.5,0.9c-0.1,0.4-0.2,0.9-0.2,1.4v1.2h3.9V8
			h-3.8v11.4H215.5z"/>
		<path class="st5" d="M225.9,6.1v8.5c0,1,0.2,1.8,0.7,2.3c0.5,0.6,1.2,0.8,2.1,0.8c0.7,0,1.3-0.2,1.9-0.5s1.2-0.8,1.7-1.4V6.1h2.3
			v13.4h-1.4c-0.3,0-0.5-0.2-0.6-0.5l-0.2-1.4c-0.6,0.6-1.2,1.2-2,1.5c-0.7,0.4-1.5,0.6-2.5,0.6c-0.7,0-1.4-0.1-1.9-0.4
			c-0.6-0.2-1-0.6-1.4-1s-0.7-1-0.9-1.6c-0.2-0.6-0.3-1.3-0.3-2.1V6.1H225.9z"/>
		<path class="st5" d="M243,5.8c0.6,0,1.1,0.1,1.6,0.2c0.5,0.1,1,0.3,1.4,0.6h3.6v0.9c0,0.3-0.2,0.5-0.6,0.6l-1.5,0.2
			c0.3,0.6,0.4,1.2,0.4,1.9c0,0.7-0.1,1.2-0.4,1.8c-0.3,0.5-0.6,1-1,1.4c-0.4,0.4-1,0.7-1.6,0.9c-0.6,0.2-1.3,0.3-2,0.3
			c-0.6,0-1.2-0.1-1.8-0.2c-0.3,0.2-0.5,0.4-0.6,0.6c-0.1,0.2-0.2,0.4-0.2,0.6c0,0.3,0.1,0.6,0.4,0.7c0.3,0.2,0.6,0.3,1,0.4
			c0.4,0.1,0.9,0.1,1.4,0.1s1.1,0,1.6,0c0.6,0,1.1,0,1.6,0.1c0.5,0.1,1,0.3,1.4,0.5c0.4,0.2,0.8,0.5,1,0.9c0.3,0.4,0.4,0.9,0.4,1.5
			c0,0.6-0.1,1.1-0.4,1.7c-0.3,0.5-0.7,1-1.2,1.4s-1.2,0.8-2,1c-0.8,0.3-1.6,0.4-2.6,0.4s-1.8-0.1-2.6-0.3s-1.3-0.5-1.8-0.8
			c-0.5-0.3-0.8-0.7-1.1-1.1c-0.2-0.4-0.4-0.9-0.4-1.3c0-0.7,0.2-1.2,0.6-1.7c0.4-0.5,1-0.8,1.7-1.1c-0.4-0.2-0.7-0.4-0.9-0.7
			c-0.2-0.3-0.3-0.7-0.3-1.2c0-0.2,0-0.4,0.1-0.6c0.1-0.2,0.2-0.4,0.3-0.6c0.1-0.2,0.3-0.4,0.5-0.6c0.2-0.2,0.5-0.3,0.7-0.5
			c-0.7-0.4-1.2-0.9-1.5-1.5c-0.4-0.6-0.6-1.3-0.6-2.1c0-0.7,0.1-1.2,0.4-1.8c0.3-0.5,0.6-1,1-1.4c0.4-0.4,1-0.7,1.6-0.9
			C241.6,5.9,242.3,5.8,243,5.8z M247.2,20.1c0-0.3-0.1-0.6-0.3-0.8s-0.4-0.4-0.8-0.5c-0.3-0.1-0.7-0.2-1.1-0.2s-0.8-0.1-1.3-0.1
			c-0.5,0-0.9,0-1.4,0s-0.9-0.1-1.4-0.2c-0.5,0.2-0.9,0.5-1.2,0.9c-0.3,0.3-0.5,0.8-0.5,1.2c0,0.3,0.1,0.6,0.2,0.8
			c0.2,0.3,0.4,0.5,0.7,0.7c0.3,0.2,0.7,0.3,1.2,0.4c0.5,0.1,1,0.2,1.7,0.2c0.6,0,1.2-0.1,1.7-0.2c0.5-0.1,0.9-0.3,1.3-0.5
			c0.3-0.2,0.6-0.5,0.8-0.8C247.1,20.8,247.2,20.5,247.2,20.1z M243,12.9c0.5,0,0.9-0.1,1.3-0.2c0.4-0.1,0.7-0.3,0.9-0.6
			s0.4-0.5,0.6-0.9s0.2-0.7,0.2-1.1c0-0.8-0.2-1.5-0.7-2c-0.5-0.5-1.2-0.7-2.2-0.7c-0.9,0-1.7,0.2-2.2,0.7c-0.5,0.5-0.7,1.1-0.7,2
			c0,0.4,0.1,0.8,0.2,1.1c0.1,0.3,0.3,0.6,0.6,0.9s0.5,0.4,0.9,0.6S242.6,12.9,243,12.9z"/>
		<path class="st5" d="M257.3,5.9c0.8,0,1.5,0.1,2.2,0.4c0.7,0.3,1.3,0.7,1.8,1.2c0.5,0.5,0.9,1.1,1.2,1.9c0.3,0.7,0.4,1.6,0.4,2.5
			c0,0.4,0,0.6-0.1,0.7s-0.2,0.2-0.4,0.2h-8.9c0,0.8,0.1,1.6,0.3,2.2c0.2,0.6,0.5,1.1,0.9,1.6s0.8,0.7,1.3,0.9
			c0.5,0.2,1.1,0.3,1.7,0.3c0.6,0,1.1-0.1,1.5-0.2c0.4-0.1,0.8-0.3,1.1-0.4s0.6-0.3,0.8-0.4c0.2-0.1,0.4-0.2,0.5-0.2
			c0.2,0,0.3,0.1,0.4,0.2l0.7,0.9c-0.3,0.4-0.6,0.7-1,0.9c-0.4,0.3-0.8,0.5-1.3,0.6c-0.5,0.2-0.9,0.3-1.4,0.4
			c-0.5,0.1-1,0.1-1.5,0.1c-0.9,0-1.8-0.2-2.6-0.5c-0.8-0.3-1.5-0.8-2-1.4s-1-1.3-1.3-2.2c-0.3-0.9-0.5-1.9-0.5-3.1
			c0-0.9,0.1-1.8,0.4-2.6c0.3-0.8,0.7-1.5,1.2-2.1c0.5-0.6,1.2-1.1,2-1.4S256.3,5.9,257.3,5.9z M257.4,7.6c-1.1,0-2,0.3-2.7,1
			s-1.1,1.6-1.2,2.7h7.3c0-0.5-0.1-1-0.2-1.5s-0.4-0.8-0.7-1.2s-0.6-0.6-1.1-0.8C258.4,7.7,257.9,7.6,257.4,7.6z"/>
		<path class="st5" d="M271.1,5.9c0.8,0,1.5,0.1,2.2,0.4c0.7,0.3,1.3,0.7,1.8,1.2c0.5,0.5,0.9,1.1,1.2,1.9c0.3,0.7,0.4,1.6,0.4,2.5
			c0,0.4,0,0.6-0.1,0.7s-0.2,0.2-0.4,0.2h-8.9c0,0.8,0.1,1.6,0.3,2.2c0.2,0.6,0.5,1.1,0.9,1.6s0.8,0.7,1.3,0.9
			c0.5,0.2,1.1,0.3,1.7,0.3c0.6,0,1.1-0.1,1.5-0.2c0.4-0.1,0.8-0.3,1.1-0.4s0.6-0.3,0.8-0.4c0.2-0.1,0.4-0.2,0.5-0.2
			c0.2,0,0.3,0.1,0.4,0.2l0.7,0.9c-0.3,0.4-0.6,0.7-1,0.9c-0.4,0.3-0.8,0.5-1.3,0.6c-0.5,0.2-0.9,0.3-1.4,0.4
			c-0.5,0.1-1,0.1-1.5,0.1c-0.9,0-1.8-0.2-2.6-0.5c-0.8-0.3-1.5-0.8-2-1.4s-1-1.3-1.3-2.2c-0.3-0.9-0.5-1.9-0.5-3.1
			c0-0.9,0.1-1.8,0.4-2.6c0.3-0.8,0.7-1.5,1.2-2.1c0.5-0.6,1.2-1.1,2-1.4S270.2,5.9,271.1,5.9z M271.2,7.6c-1.1,0-2,0.3-2.7,1
			s-1.1,1.6-1.2,2.7h7.3c0-0.5-0.1-1-0.2-1.5s-0.4-0.8-0.7-1.2S273,8,272.6,7.9C272.2,7.7,271.7,7.6,271.2,7.6z"/>
		<path class="st5" d="M294.8,3.5c-0.1,0.1-0.2,0.2-0.2,0.3c-0.1,0.1-0.2,0.1-0.3,0.1c-0.1,0-0.3-0.1-0.5-0.2
			c-0.2-0.1-0.4-0.3-0.8-0.5c-0.3-0.2-0.7-0.3-1.1-0.5c-0.4-0.1-0.9-0.2-1.5-0.2c-0.6,0-1.1,0.1-1.5,0.2S288,3,287.7,3.3
			c-0.3,0.3-0.5,0.6-0.7,0.9s-0.2,0.7-0.2,1.2c0,0.5,0.1,1,0.4,1.3c0.3,0.3,0.6,0.6,1,0.9c0.4,0.2,0.9,0.5,1.5,0.6
			c0.5,0.2,1.1,0.4,1.7,0.6s1.1,0.4,1.7,0.7c0.5,0.2,1,0.5,1.5,0.9c0.4,0.4,0.8,0.8,1,1.4c0.3,0.5,0.4,1.2,0.4,2
			c0,0.8-0.1,1.6-0.4,2.3c-0.3,0.7-0.7,1.4-1.2,1.9c-0.5,0.5-1.2,1-2,1.3c-0.8,0.3-1.7,0.5-2.7,0.5c-1.2,0-2.3-0.2-3.3-0.7
			c-1-0.4-1.9-1-2.6-1.8l0.7-1.2c0.1-0.1,0.2-0.2,0.3-0.2c0.1-0.1,0.2-0.1,0.3-0.1c0.2,0,0.4,0.1,0.6,0.3s0.5,0.4,0.9,0.7
			c0.4,0.2,0.8,0.5,1.3,0.7s1.1,0.3,1.9,0.3c0.6,0,1.1-0.1,1.6-0.3s0.9-0.4,1.2-0.7c0.3-0.3,0.6-0.7,0.8-1.1s0.3-0.9,0.3-1.4
			c0-0.6-0.1-1-0.4-1.4c-0.3-0.4-0.6-0.7-1-0.9s-0.9-0.5-1.4-0.6c-0.5-0.2-1.1-0.3-1.7-0.5c-0.6-0.2-1.1-0.4-1.7-0.6
			c-0.5-0.2-1-0.5-1.4-0.9s-0.8-0.9-1-1.4c-0.3-0.6-0.4-1.3-0.4-2.1c0-0.7,0.1-1.3,0.4-1.9c0.3-0.6,0.6-1.2,1.1-1.7s1.1-0.9,1.8-1.2
			c0.7-0.3,1.6-0.4,2.5-0.4c1.1,0,2,0.2,2.9,0.5s1.6,0.8,2.3,1.5L294.8,3.5z"/>
		<path class="st5" d="M298.7,23.9V6.1h1.4c0.3,0,0.5,0.2,0.6,0.5l0.2,1.6c0.6-0.7,1.2-1.3,2-1.7c0.7-0.4,1.6-0.6,2.5-0.6
			c0.8,0,1.5,0.1,2.1,0.4c0.6,0.3,1.2,0.7,1.6,1.3c0.4,0.6,0.8,1.3,1,2.1c0.2,0.9,0.4,1.8,0.4,2.9c0,1-0.1,1.9-0.4,2.7
			s-0.6,1.6-1.1,2.2c-0.5,0.6-1.1,1.1-1.8,1.5c-0.7,0.4-1.5,0.5-2.4,0.5c-0.8,0-1.5-0.1-2.1-0.4c-0.6-0.3-1.1-0.7-1.5-1.2v5.9H298.7
			z M304.7,7.7c-0.8,0-1.4,0.2-2,0.5c-0.6,0.4-1.1,0.8-1.6,1.5v6.5c0.4,0.6,0.9,1,1.4,1.2c0.5,0.2,1.1,0.4,1.7,0.4
			c1.2,0,2.2-0.4,2.9-1.3c0.7-0.9,1-2.2,1-3.8c0-0.9-0.1-1.6-0.2-2.2c-0.2-0.6-0.4-1.1-0.7-1.5s-0.6-0.7-1.1-0.9
			S305.2,7.7,304.7,7.7z"/>
		<path class="st5" d="M318.7,5.9c1,0,1.9,0.2,2.6,0.5c0.8,0.3,1.5,0.8,2,1.4c0.5,0.6,1,1.3,1.3,2.2c0.3,0.8,0.4,1.8,0.4,2.8
			c0,1.1-0.1,2-0.4,2.8c-0.3,0.8-0.7,1.6-1.3,2.2c-0.5,0.6-1.2,1.1-2,1.4c-0.8,0.3-1.7,0.5-2.6,0.5s-1.9-0.2-2.6-0.5
			c-0.8-0.3-1.5-0.8-2-1.4s-1-1.3-1.3-2.2s-0.4-1.8-0.4-2.8c0-1,0.1-2,0.4-2.8s0.7-1.6,1.3-2.2s1.2-1.1,2-1.4
			C316.8,6,317.7,5.9,318.7,5.9z M318.7,17.8c1.3,0,2.3-0.4,3-1.3s1-2.1,1-3.7c0-1.6-0.3-2.8-1-3.7c-0.7-0.9-1.6-1.3-3-1.3
			c-0.7,0-1.2,0.1-1.7,0.3s-0.9,0.6-1.2,1c-0.3,0.4-0.6,1-0.7,1.6s-0.2,1.3-0.2,2.1s0.1,1.5,0.2,2.1c0.2,0.6,0.4,1.1,0.7,1.6
			c0.3,0.4,0.7,0.8,1.2,1S318,17.8,318.7,17.8z"/>
		<path class="st5" d="M327.9,19.4V6.1h1.4c0.3,0,0.5,0.2,0.6,0.5l0.2,1.5c0.6-0.6,1.2-1.2,1.9-1.6c0.7-0.4,1.5-0.6,2.5-0.6
			c0.7,0,1.4,0.1,1.9,0.4c0.6,0.2,1,0.6,1.4,1c0.4,0.4,0.7,1,0.9,1.6c0.2,0.6,0.3,1.3,0.3,2.1v8.5h-2.3v-8.5c0-1-0.2-1.8-0.7-2.4
			c-0.5-0.6-1.2-0.8-2.1-0.8c-0.7,0-1.3,0.2-1.9,0.5c-0.6,0.3-1.2,0.8-1.7,1.4v9.8H327.9z"/>
		<path class="st5" d="M350.2,8.3c-0.1,0.2-0.3,0.3-0.5,0.3c-0.1,0-0.3,0-0.4-0.1s-0.4-0.2-0.6-0.3c-0.2-0.1-0.5-0.2-0.9-0.3
			c-0.3-0.1-0.7-0.2-1.2-0.2c-0.4,0-0.8,0.1-1.1,0.2c-0.3,0.1-0.6,0.2-0.8,0.4c-0.2,0.2-0.4,0.4-0.5,0.6c-0.1,0.2-0.2,0.5-0.2,0.8
			c0,0.3,0.1,0.6,0.3,0.9c0.2,0.2,0.5,0.4,0.8,0.6s0.7,0.3,1.1,0.4s0.8,0.3,1.3,0.4c0.4,0.1,0.9,0.3,1.3,0.5s0.8,0.4,1.1,0.7
			s0.6,0.6,0.8,1c0.2,0.4,0.3,0.8,0.3,1.4c0,0.6-0.1,1.2-0.3,1.7s-0.5,1-1,1.4s-1,0.7-1.6,0.9c-0.6,0.2-1.3,0.3-2.2,0.3
			c-0.9,0-1.8-0.2-2.5-0.5c-0.8-0.3-1.4-0.7-1.9-1.2l0.6-0.9c0.1-0.1,0.2-0.2,0.3-0.3c0.1-0.1,0.2-0.1,0.4-0.1s0.3,0.1,0.5,0.2
			s0.4,0.3,0.6,0.4s0.6,0.3,0.9,0.4c0.4,0.1,0.8,0.2,1.3,0.2c0.5,0,0.9-0.1,1.2-0.2s0.6-0.3,0.9-0.5s0.4-0.4,0.5-0.7
			c0.1-0.3,0.2-0.5,0.2-0.8c0-0.4-0.1-0.7-0.3-0.9c-0.2-0.2-0.5-0.4-0.8-0.6c-0.3-0.2-0.7-0.3-1.1-0.4c-0.4-0.1-0.8-0.3-1.3-0.4
			c-0.4-0.1-0.9-0.3-1.3-0.5c-0.4-0.2-0.8-0.4-1.1-0.7s-0.6-0.6-0.8-1c-0.2-0.4-0.3-0.9-0.3-1.5c0-0.5,0.1-1,0.3-1.5
			s0.5-0.9,0.9-1.2s0.9-0.6,1.5-0.9s1.3-0.3,2-0.3c0.9,0,1.7,0.1,2.4,0.4c0.7,0.3,1.3,0.7,1.8,1.1L350.2,8.3z"/>
		<path class="st5" d="M359.4,5.9c1,0,1.9,0.2,2.6,0.5c0.8,0.3,1.5,0.8,2,1.4c0.5,0.6,1,1.3,1.3,2.2c0.3,0.8,0.4,1.8,0.4,2.8
			c0,1.1-0.1,2-0.4,2.8c-0.3,0.8-0.7,1.6-1.3,2.2c-0.5,0.6-1.2,1.1-2,1.4c-0.8,0.3-1.7,0.5-2.6,0.5s-1.9-0.2-2.6-0.5
			c-0.8-0.3-1.5-0.8-2-1.4s-1-1.3-1.3-2.2s-0.4-1.8-0.4-2.8c0-1,0.1-2,0.4-2.8s0.7-1.6,1.3-2.2s1.2-1.1,2-1.4
			C357.6,6,358.5,5.9,359.4,5.9z M359.4,17.8c1.3,0,2.3-0.4,3-1.3s1-2.1,1-3.7c0-1.6-0.3-2.8-1-3.7c-0.7-0.9-1.6-1.3-3-1.3
			c-0.7,0-1.2,0.1-1.7,0.3s-0.9,0.6-1.2,1c-0.3,0.4-0.6,1-0.7,1.6s-0.2,1.3-0.2,2.1s0.1,1.5,0.2,2.1c0.2,0.6,0.4,1.1,0.7,1.6
			c0.3,0.4,0.7,0.8,1.2,1S358.8,17.8,359.4,17.8z"/>
		<path class="st5" d="M368.7,19.4V6.1h1.3c0.3,0,0.4,0,0.5,0.1s0.2,0.3,0.2,0.5l0.2,2.1c0.5-0.9,1-1.7,1.7-2.2
			c0.7-0.5,1.5-0.8,2.4-0.8c0.4,0,0.7,0,1,0.1s0.6,0.2,0.8,0.3l-0.3,1.8c-0.1,0.2-0.2,0.3-0.4,0.3c-0.1,0-0.3,0-0.6-0.1
			s-0.6-0.1-1.1-0.1c-0.8,0-1.5,0.2-2.1,0.7c-0.5,0.5-1,1.2-1.4,2.1v8.5H368.7z"/>
		<path class="st5" d="M387,8.3c-0.1,0.2-0.3,0.3-0.5,0.3c-0.1,0-0.3,0-0.4-0.1s-0.4-0.2-0.6-0.3c-0.2-0.1-0.5-0.2-0.9-0.3
			c-0.3-0.1-0.7-0.2-1.2-0.2c-0.4,0-0.8,0.1-1.1,0.2c-0.3,0.1-0.6,0.2-0.8,0.4c-0.2,0.2-0.4,0.4-0.5,0.6c-0.1,0.2-0.2,0.5-0.2,0.8
			c0,0.3,0.1,0.6,0.3,0.9c0.2,0.2,0.5,0.4,0.8,0.6s0.7,0.3,1.1,0.4s0.8,0.3,1.3,0.4c0.4,0.1,0.9,0.3,1.3,0.5s0.8,0.4,1.1,0.7
			s0.6,0.6,0.8,1c0.2,0.4,0.3,0.8,0.3,1.4c0,0.6-0.1,1.2-0.3,1.7s-0.5,1-1,1.4s-1,0.7-1.6,0.9c-0.6,0.2-1.3,0.3-2.2,0.3
			c-0.9,0-1.8-0.2-2.5-0.5c-0.8-0.3-1.4-0.7-1.9-1.2l0.6-0.9c0.1-0.1,0.2-0.2,0.3-0.3c0.1-0.1,0.2-0.1,0.4-0.1s0.3,0.1,0.5,0.2
			s0.4,0.3,0.6,0.4s0.6,0.3,0.9,0.4c0.4,0.1,0.8,0.2,1.3,0.2c0.5,0,0.9-0.1,1.2-0.2s0.6-0.3,0.9-0.5s0.4-0.4,0.5-0.7
			c0.1-0.3,0.2-0.5,0.2-0.8c0-0.4-0.1-0.7-0.3-0.9c-0.2-0.2-0.5-0.4-0.8-0.6c-0.3-0.2-0.7-0.3-1.1-0.4c-0.4-0.1-0.8-0.3-1.3-0.4
			c-0.4-0.1-0.9-0.3-1.3-0.5c-0.4-0.2-0.8-0.4-1.1-0.7s-0.6-0.6-0.8-1c-0.2-0.4-0.3-0.9-0.3-1.5c0-0.5,0.1-1,0.3-1.5
			s0.5-0.9,0.9-1.2s0.9-0.6,1.5-0.9s1.3-0.3,2-0.3c0.9,0,1.7,0.1,2.4,0.4c0.7,0.3,1.3,0.7,1.8,1.1L387,8.3z"/>
		<path class="st5" d="M390.8,19.4V0h2.3v7.9c0.6-0.6,1.2-1.1,1.9-1.5c0.7-0.4,1.5-0.5,2.4-0.5c0.7,0,1.4,0.1,1.9,0.4
			c0.6,0.2,1,0.6,1.4,1c0.4,0.4,0.7,1,0.9,1.6c0.2,0.6,0.3,1.3,0.3,2.1v8.5h-2.3v-8.5c0-1-0.2-1.8-0.7-2.4c-0.5-0.6-1.2-0.8-2.1-0.8
			c-0.7,0-1.3,0.2-1.9,0.5c-0.6,0.3-1.2,0.8-1.7,1.4v9.8H390.8z"/>
		<path class="st5" d="M408.6,1.9c0,0.2,0,0.4-0.1,0.6c-0.1,0.2-0.2,0.4-0.4,0.5c-0.2,0.2-0.3,0.3-0.5,0.4c-0.2,0.1-0.4,0.1-0.6,0.1
			s-0.4,0-0.6-0.1c-0.2-0.1-0.4-0.2-0.5-0.4c-0.2-0.2-0.3-0.3-0.4-0.5s-0.1-0.4-0.1-0.6s0-0.4,0.1-0.7c0.1-0.2,0.2-0.4,0.4-0.5
			c0.2-0.2,0.3-0.3,0.5-0.4c0.2-0.1,0.4-0.1,0.6-0.1s0.4,0,0.6,0.1s0.4,0.2,0.5,0.4c0.2,0.2,0.3,0.3,0.4,0.5
			C408.5,1.4,408.6,1.6,408.6,1.9z M408,6.1v13.4h-2.3V6.1H408z"/>
		<path class="st5" d="M412.2,23.9V6.1h1.4c0.3,0,0.5,0.2,0.6,0.5l0.2,1.6c0.6-0.7,1.2-1.3,2-1.7c0.7-0.4,1.6-0.6,2.5-0.6
			c0.8,0,1.5,0.1,2.1,0.4c0.6,0.3,1.2,0.7,1.6,1.3c0.4,0.6,0.8,1.3,1,2.1c0.2,0.9,0.4,1.8,0.4,2.9c0,1-0.1,1.9-0.4,2.7
			s-0.6,1.6-1.1,2.2c-0.5,0.6-1.1,1.1-1.8,1.5c-0.7,0.4-1.5,0.5-2.4,0.5c-0.8,0-1.5-0.1-2.1-0.4c-0.6-0.3-1.1-0.7-1.5-1.2v5.9H412.2
			z M418.1,7.7c-0.8,0-1.4,0.2-2,0.5c-0.6,0.4-1.1,0.8-1.6,1.5v6.5c0.4,0.6,0.9,1,1.4,1.2c0.5,0.2,1.1,0.4,1.7,0.4
			c1.2,0,2.2-0.4,2.9-1.3c0.7-0.9,1-2.2,1-3.8c0-0.9-0.1-1.6-0.2-2.2c-0.2-0.6-0.4-1.1-0.7-1.5S420,8.2,419.6,8S418.7,7.7,418.1,7.7
			z"/>
		<path class="st5" d="M197.4,26.9V29h-6.1v16.7h-2.6V29h-6.1v-2.1H197.4z"/>
		<path class="st5" d="M197.6,45.8V32.4h1.3c0.3,0,0.4,0,0.5,0.1c0.1,0.1,0.2,0.3,0.2,0.5l0.2,2.1c0.5-0.9,1-1.7,1.7-2.2
			c0.7-0.5,1.5-0.8,2.4-0.8c0.4,0,0.7,0,1,0.1c0.3,0.1,0.6,0.2,0.8,0.3l-0.3,1.8c-0.1,0.2-0.2,0.3-0.4,0.3c-0.1,0-0.3,0-0.6-0.1
			c-0.3-0.1-0.6-0.1-1.1-0.1c-0.8,0-1.5,0.2-2.1,0.7s-1,1.2-1.4,2.1v8.5H197.6z"/>
		<path class="st5" d="M217.6,45.8h-1c-0.2,0-0.4,0-0.6-0.1s-0.2-0.2-0.3-0.4l-0.3-1.2c-0.4,0.3-0.7,0.6-1,0.9
			c-0.3,0.2-0.7,0.5-1.1,0.6c-0.4,0.2-0.8,0.3-1.2,0.4c-0.4,0.1-0.9,0.1-1.4,0.1c-0.5,0-1-0.1-1.5-0.2c-0.5-0.1-0.8-0.4-1.2-0.7
			s-0.6-0.7-0.8-1.1c-0.2-0.4-0.3-1-0.3-1.6c0-0.5,0.1-1,0.4-1.5s0.8-0.9,1.4-1.3c0.6-0.4,1.5-0.7,2.5-0.9c1-0.2,2.3-0.4,3.8-0.4v-1
			c0-1-0.2-1.8-0.7-2.4c-0.4-0.5-1.1-0.8-2-0.8c-0.6,0-1.1,0.1-1.4,0.2c-0.4,0.1-0.7,0.3-1,0.5c-0.3,0.2-0.5,0.3-0.7,0.5
			c-0.2,0.1-0.4,0.2-0.6,0.2c-0.2,0-0.3,0-0.4-0.1c-0.1-0.1-0.2-0.2-0.3-0.3l-0.4-0.8c0.7-0.7,1.5-1.2,2.4-1.6s1.8-0.5,2.8-0.5
			c0.7,0,1.4,0.1,2,0.4s1.1,0.6,1.5,1c0.4,0.4,0.7,1,0.9,1.6s0.3,1.3,0.3,2.1V45.8z M211.5,44.4c0.4,0,0.8,0,1.1-0.1
			c0.3-0.1,0.7-0.2,1-0.4c0.3-0.2,0.6-0.3,0.9-0.6s0.5-0.5,0.8-0.8v-2.8c-1.1,0-2,0.1-2.8,0.2c-0.8,0.1-1.4,0.3-1.8,0.5
			s-0.8,0.5-1,0.8c-0.2,0.3-0.3,0.6-0.3,1c0,0.4,0.1,0.7,0.2,0.9c0.1,0.3,0.3,0.5,0.5,0.6c0.2,0.2,0.4,0.3,0.7,0.4
			S211.2,44.4,211.5,44.4z"/>
		<path class="st5" d="M224.3,28.2c0,0.2,0,0.4-0.1,0.6c-0.1,0.2-0.2,0.4-0.4,0.5c-0.2,0.2-0.3,0.3-0.5,0.4s-0.4,0.1-0.6,0.1
			s-0.4,0-0.6-0.1c-0.2-0.1-0.4-0.2-0.5-0.4c-0.2-0.2-0.3-0.3-0.4-0.5c-0.1-0.2-0.1-0.4-0.1-0.6s0-0.4,0.1-0.7
			c0.1-0.2,0.2-0.4,0.4-0.5c0.2-0.2,0.3-0.3,0.5-0.4c0.2-0.1,0.4-0.1,0.6-0.1s0.4,0,0.6,0.1s0.4,0.2,0.5,0.4
			c0.2,0.2,0.3,0.3,0.4,0.5C224.2,27.8,224.3,28,224.3,28.2z M223.8,32.4v13.4h-2.3V32.4H223.8z"/>
		<path class="st5" d="M227.9,45.8V32.4h1.4c0.3,0,0.5,0.2,0.6,0.5l0.2,1.5c0.6-0.6,1.2-1.2,1.9-1.6c0.7-0.4,1.5-0.6,2.5-0.6
			c0.7,0,1.4,0.1,1.9,0.4c0.6,0.2,1,0.6,1.4,1c0.4,0.4,0.7,1,0.9,1.6c0.2,0.6,0.3,1.3,0.3,2.1v8.5h-2.3v-8.5c0-1-0.2-1.8-0.7-2.4
			c-0.5-0.6-1.2-0.8-2.1-0.8c-0.7,0-1.3,0.2-1.9,0.5c-0.6,0.3-1.2,0.8-1.7,1.4v9.8H227.9z"/>
		<path class="st5" d="M245.7,28.2c0,0.2,0,0.4-0.1,0.6c-0.1,0.2-0.2,0.4-0.4,0.5c-0.2,0.2-0.3,0.3-0.5,0.4s-0.4,0.1-0.6,0.1
			s-0.4,0-0.6-0.1c-0.2-0.1-0.4-0.2-0.5-0.4c-0.2-0.2-0.3-0.3-0.4-0.5c-0.1-0.2-0.1-0.4-0.1-0.6s0-0.4,0.1-0.7
			c0.1-0.2,0.2-0.4,0.4-0.5c0.2-0.2,0.3-0.3,0.5-0.4c0.2-0.1,0.4-0.1,0.6-0.1s0.4,0,0.6,0.1s0.4,0.2,0.5,0.4
			c0.2,0.2,0.3,0.3,0.4,0.5C245.6,27.8,245.7,28,245.7,28.2z M245.2,32.4v13.4h-2.3V32.4H245.2z"/>
		<path class="st5" d="M249.3,45.8V32.4h1.4c0.3,0,0.5,0.2,0.6,0.5l0.2,1.5c0.6-0.6,1.2-1.2,1.9-1.6c0.7-0.4,1.5-0.6,2.5-0.6
			c0.7,0,1.4,0.1,1.9,0.4c0.6,0.2,1,0.6,1.4,1c0.4,0.4,0.7,1,0.9,1.6c0.2,0.6,0.3,1.3,0.3,2.1v8.5h-2.3v-8.5c0-1-0.2-1.8-0.7-2.4
			c-0.5-0.6-1.2-0.8-2.1-0.8c-0.7,0-1.3,0.2-1.9,0.5c-0.6,0.3-1.2,0.8-1.7,1.4v9.8H249.3z"/>
		<path class="st5" d="M268.5,32.2c0.6,0,1.1,0.1,1.6,0.2c0.5,0.1,1,0.3,1.4,0.6h3.6v0.9c0,0.3-0.2,0.5-0.6,0.6l-1.5,0.2
			c0.3,0.6,0.4,1.2,0.4,1.9c0,0.7-0.1,1.2-0.4,1.8c-0.3,0.5-0.6,1-1,1.4c-0.4,0.4-1,0.7-1.6,0.9c-0.6,0.2-1.3,0.3-2,0.3
			c-0.6,0-1.2-0.1-1.8-0.2c-0.3,0.2-0.5,0.4-0.6,0.6c-0.1,0.2-0.2,0.4-0.2,0.6c0,0.3,0.1,0.6,0.4,0.7s0.6,0.3,1,0.4
			c0.4,0.1,0.9,0.1,1.4,0.1s1.1,0,1.6,0c0.6,0,1.1,0,1.6,0.1c0.5,0.1,1,0.3,1.4,0.5c0.4,0.2,0.8,0.5,1,0.9s0.4,0.9,0.4,1.5
			c0,0.6-0.1,1.1-0.4,1.7c-0.3,0.5-0.7,1-1.2,1.4c-0.5,0.4-1.2,0.8-2,1c-0.8,0.3-1.6,0.4-2.6,0.4s-1.8-0.1-2.6-0.3
			c-0.7-0.2-1.3-0.5-1.8-0.8s-0.8-0.7-1.1-1.1c-0.2-0.4-0.4-0.9-0.4-1.3c0-0.7,0.2-1.2,0.6-1.7c0.4-0.5,1-0.8,1.7-1.1
			c-0.4-0.2-0.7-0.4-0.9-0.7c-0.2-0.3-0.3-0.7-0.3-1.2c0-0.2,0-0.4,0.1-0.6c0.1-0.2,0.2-0.4,0.3-0.6c0.1-0.2,0.3-0.4,0.5-0.6
			c0.2-0.2,0.5-0.3,0.7-0.5c-0.7-0.4-1.2-0.9-1.5-1.5c-0.4-0.6-0.6-1.3-0.6-2.1c0-0.7,0.1-1.2,0.4-1.8c0.3-0.5,0.6-1,1-1.4
			c0.4-0.4,1-0.7,1.6-0.9C267,32.3,267.7,32.2,268.5,32.2z M272.6,46.5c0-0.3-0.1-0.6-0.3-0.8s-0.4-0.4-0.8-0.5s-0.7-0.2-1.1-0.2
			c-0.4-0.1-0.8-0.1-1.3-0.1s-0.9,0-1.4,0s-0.9-0.1-1.4-0.2c-0.5,0.2-0.9,0.5-1.2,0.9c-0.3,0.3-0.5,0.8-0.5,1.2
			c0,0.3,0.1,0.6,0.2,0.8c0.2,0.3,0.4,0.5,0.7,0.7s0.7,0.3,1.2,0.4c0.5,0.1,1,0.2,1.7,0.2c0.6,0,1.2-0.1,1.7-0.2
			c0.5-0.1,0.9-0.3,1.3-0.5s0.6-0.5,0.8-0.8S272.6,46.8,272.6,46.5z M268.5,39.3c0.5,0,0.9-0.1,1.3-0.2c0.4-0.1,0.7-0.3,0.9-0.6
			s0.4-0.5,0.6-0.8c0.1-0.3,0.2-0.7,0.2-1.1c0-0.8-0.2-1.5-0.7-2c-0.5-0.5-1.2-0.7-2.2-0.7c-0.9,0-1.7,0.2-2.2,0.7
			c-0.5,0.5-0.7,1.1-0.7,2c0,0.4,0.1,0.8,0.2,1.1c0.1,0.3,0.3,0.6,0.6,0.8s0.5,0.4,0.9,0.6S268,39.3,268.5,39.3z"/>
		<path class="st5" d="M285.7,38.7v7.1h-2.5V26.9h5.6c1.2,0,2.2,0.1,3.1,0.4c0.9,0.3,1.6,0.7,2.2,1.2s1,1.1,1.3,1.8
			c0.3,0.7,0.4,1.5,0.4,2.4c0,0.9-0.2,1.7-0.5,2.4s-0.8,1.4-1.4,1.9c-0.6,0.5-1.3,0.9-2.2,1.2c-0.9,0.3-1.9,0.4-3,0.4H285.7z
			 M285.7,36.7h3c0.7,0,1.4-0.1,1.9-0.3s1-0.5,1.4-0.8s0.7-0.8,0.9-1.2c0.2-0.5,0.3-1,0.3-1.6c0-1.2-0.4-2.1-1.1-2.8
			c-0.7-0.7-1.9-1-3.4-1h-3V36.7z"/>
		<path class="st5" d="M298.6,45.8V32.4h1.3c0.3,0,0.4,0,0.5,0.1s0.2,0.3,0.2,0.5l0.2,2.1c0.5-0.9,1-1.7,1.7-2.2
			c0.7-0.5,1.5-0.8,2.4-0.8c0.4,0,0.7,0,1,0.1c0.3,0.1,0.6,0.2,0.8,0.3l-0.3,1.8c-0.1,0.2-0.2,0.3-0.4,0.3c-0.1,0-0.3,0-0.6-0.1
			c-0.3-0.1-0.6-0.1-1.1-0.1c-0.8,0-1.5,0.2-2.1,0.7c-0.5,0.5-1,1.2-1.4,2.1v8.5H298.6z"/>
		<path class="st5" d="M314.7,32.2c1,0,1.9,0.2,2.6,0.5c0.8,0.3,1.5,0.8,2,1.4c0.5,0.6,1,1.3,1.3,2.2c0.3,0.8,0.4,1.8,0.4,2.8
			c0,1.1-0.1,2-0.4,2.8c-0.3,0.8-0.7,1.6-1.3,2.2c-0.5,0.6-1.2,1.1-2,1.4c-0.8,0.3-1.7,0.5-2.6,0.5s-1.9-0.2-2.6-0.5
			c-0.8-0.3-1.5-0.8-2-1.4c-0.6-0.6-1-1.3-1.3-2.2s-0.4-1.8-0.4-2.8c0-1,0.1-2,0.4-2.8c0.3-0.8,0.7-1.6,1.3-2.2
			c0.6-0.6,1.2-1.1,2-1.4C312.8,32.4,313.7,32.2,314.7,32.2z M314.7,44.1c1.3,0,2.3-0.4,3-1.3c0.7-0.9,1-2.1,1-3.7
			c0-1.6-0.3-2.8-1-3.7s-1.6-1.3-3-1.3c-0.7,0-1.2,0.1-1.7,0.3s-0.9,0.6-1.2,1c-0.3,0.4-0.6,1-0.7,1.6c-0.2,0.6-0.2,1.3-0.2,2.1
			c0,0.8,0.1,1.5,0.2,2.1s0.4,1.1,0.7,1.6c0.3,0.4,0.7,0.8,1.2,1S314,44.1,314.7,44.1z"/>
		<path class="st5" d="M328.4,32.2c0.6,0,1.1,0.1,1.6,0.2c0.5,0.1,1,0.3,1.4,0.6h3.6v0.9c0,0.3-0.2,0.5-0.6,0.6l-1.5,0.2
			c0.3,0.6,0.4,1.2,0.4,1.9c0,0.7-0.1,1.2-0.4,1.8c-0.3,0.5-0.6,1-1,1.4c-0.4,0.4-1,0.7-1.6,0.9c-0.6,0.2-1.3,0.3-2,0.3
			c-0.6,0-1.2-0.1-1.8-0.2c-0.3,0.2-0.5,0.4-0.6,0.6c-0.1,0.2-0.2,0.4-0.2,0.6c0,0.3,0.1,0.6,0.4,0.7s0.6,0.3,1,0.4
			c0.4,0.1,0.9,0.1,1.4,0.1s1.1,0,1.6,0c0.6,0,1.1,0,1.6,0.1c0.5,0.1,1,0.3,1.4,0.5c0.4,0.2,0.8,0.5,1,0.9s0.4,0.9,0.4,1.5
			c0,0.6-0.1,1.1-0.4,1.7c-0.3,0.5-0.7,1-1.2,1.4c-0.5,0.4-1.2,0.8-2,1c-0.8,0.3-1.6,0.4-2.6,0.4s-1.8-0.1-2.6-0.3
			c-0.7-0.2-1.3-0.5-1.8-0.8s-0.8-0.7-1.1-1.1c-0.2-0.4-0.4-0.9-0.4-1.3c0-0.7,0.2-1.2,0.6-1.7c0.4-0.5,1-0.8,1.7-1.1
			c-0.4-0.2-0.7-0.4-0.9-0.7c-0.2-0.3-0.3-0.7-0.3-1.2c0-0.2,0-0.4,0.1-0.6c0.1-0.2,0.2-0.4,0.3-0.6c0.1-0.2,0.3-0.4,0.5-0.6
			c0.2-0.2,0.5-0.3,0.7-0.5c-0.7-0.4-1.2-0.9-1.5-1.5c-0.4-0.6-0.6-1.3-0.6-2.1c0-0.7,0.1-1.2,0.4-1.8c0.3-0.5,0.6-1,1-1.4
			c0.4-0.4,1-0.7,1.6-0.9C327,32.3,327.7,32.2,328.4,32.2z M332.6,46.5c0-0.3-0.1-0.6-0.3-0.8s-0.4-0.4-0.8-0.5s-0.7-0.2-1.1-0.2
			c-0.4-0.1-0.8-0.1-1.3-0.1s-0.9,0-1.4,0s-0.9-0.1-1.4-0.2c-0.5,0.2-0.9,0.5-1.2,0.9c-0.3,0.3-0.5,0.8-0.5,1.2
			c0,0.3,0.1,0.6,0.2,0.8c0.2,0.3,0.4,0.5,0.7,0.7s0.7,0.3,1.2,0.4c0.5,0.1,1,0.2,1.7,0.2c0.6,0,1.2-0.1,1.7-0.2
			c0.5-0.1,0.9-0.3,1.3-0.5s0.6-0.5,0.8-0.8S332.6,46.8,332.6,46.5z M328.4,39.3c0.5,0,0.9-0.1,1.3-0.2c0.4-0.1,0.7-0.3,0.9-0.6
			s0.4-0.5,0.6-0.8c0.1-0.3,0.2-0.7,0.2-1.1c0-0.8-0.2-1.5-0.7-2c-0.5-0.5-1.2-0.7-2.2-0.7c-0.9,0-1.7,0.2-2.2,0.7
			c-0.5,0.5-0.7,1.1-0.7,2c0,0.4,0.1,0.8,0.2,1.1c0.1,0.3,0.3,0.6,0.6,0.8s0.5,0.4,0.9,0.6S328,39.3,328.4,39.3z"/>
		<path class="st5" d="M337.4,45.8V32.4h1.3c0.3,0,0.4,0,0.5,0.1s0.2,0.3,0.2,0.5l0.2,2.1c0.5-0.9,1-1.7,1.7-2.2
			c0.7-0.5,1.5-0.8,2.4-0.8c0.4,0,0.7,0,1,0.1c0.3,0.1,0.6,0.2,0.8,0.3l-0.3,1.8c-0.1,0.2-0.2,0.3-0.4,0.3c-0.1,0-0.3,0-0.6-0.1
			c-0.3-0.1-0.6-0.1-1.1-0.1c-0.8,0-1.5,0.2-2.1,0.7c-0.5,0.5-1,1.2-1.4,2.1v8.5H337.4z"/>
		<path class="st5" d="M357.3,45.8h-1c-0.2,0-0.4,0-0.6-0.1s-0.2-0.2-0.3-0.4l-0.3-1.2c-0.4,0.3-0.7,0.6-1,0.9
			c-0.3,0.2-0.7,0.5-1.1,0.6c-0.4,0.2-0.8,0.3-1.2,0.4c-0.4,0.1-0.9,0.1-1.4,0.1c-0.5,0-1-0.1-1.5-0.2c-0.5-0.1-0.8-0.4-1.2-0.7
			s-0.6-0.7-0.8-1.1c-0.2-0.4-0.3-1-0.3-1.6c0-0.5,0.1-1,0.4-1.5s0.8-0.9,1.4-1.3c0.6-0.4,1.5-0.7,2.5-0.9c1-0.2,2.3-0.4,3.8-0.4v-1
			c0-1-0.2-1.8-0.7-2.4c-0.4-0.5-1.1-0.8-2-0.8c-0.6,0-1.1,0.1-1.4,0.2c-0.4,0.1-0.7,0.3-1,0.5c-0.3,0.2-0.5,0.3-0.7,0.5
			c-0.2,0.1-0.4,0.2-0.6,0.2c-0.2,0-0.3,0-0.4-0.1c-0.1-0.1-0.2-0.2-0.3-0.3l-0.4-0.8c0.7-0.7,1.5-1.2,2.4-1.6s1.8-0.5,2.8-0.5
			c0.7,0,1.4,0.1,2,0.4s1.1,0.6,1.5,1c0.4,0.4,0.7,1,0.9,1.6s0.3,1.3,0.3,2.1V45.8z M351.2,44.4c0.4,0,0.8,0,1.1-0.1
			c0.3-0.1,0.7-0.2,1-0.4c0.3-0.2,0.6-0.3,0.9-0.6s0.5-0.5,0.8-0.8v-2.8c-1.1,0-2,0.1-2.8,0.2c-0.8,0.1-1.4,0.3-1.8,0.5
			s-0.8,0.5-1,0.8c-0.2,0.3-0.3,0.6-0.3,1c0,0.4,0.1,0.7,0.2,0.9c0.1,0.3,0.3,0.5,0.5,0.6c0.2,0.2,0.4,0.3,0.7,0.4
			S350.9,44.4,351.2,44.4z"/>
		<path class="st5" d="M360.9,45.8V32.4h1.4c0.3,0,0.5,0.2,0.6,0.5l0.2,1.4c0.5-0.6,1-1.1,1.7-1.5c0.6-0.4,1.3-0.6,2.1-0.6
			c0.9,0,1.6,0.3,2.2,0.8c0.6,0.5,1,1.2,1.2,2c0.2-0.5,0.4-0.9,0.7-1.3c0.3-0.4,0.6-0.6,1-0.9c0.4-0.2,0.8-0.4,1.2-0.5
			c0.4-0.1,0.9-0.2,1.3-0.2c0.7,0,1.3,0.1,1.9,0.3c0.5,0.2,1,0.6,1.4,1c0.4,0.4,0.7,1,0.9,1.6c0.2,0.6,0.3,1.3,0.3,2.2v8.5h-2.3
			v-8.5c0-1-0.2-1.8-0.7-2.4c-0.5-0.5-1.1-0.8-2-0.8c-0.4,0-0.8,0.1-1.1,0.2c-0.3,0.1-0.7,0.3-0.9,0.6s-0.5,0.6-0.6,1
			c-0.2,0.4-0.2,0.9-0.2,1.4v8.5h-2.3v-8.5c0-1.1-0.2-1.9-0.6-2.4s-1.1-0.8-1.9-0.8c-0.6,0-1.1,0.2-1.6,0.5c-0.5,0.3-1,0.7-1.4,1.3
			v10H360.9z"/>
	</g>
</g>
</svg>
